<svg xmlns="http://www.w3.org/2000/svg" xmlns:xlink="http://www.w3.org/1999/xlink" width="1080" zoomAndPan="magnify" viewBox="0 0 810 809.999993" height="1080" preserveAspectRatio="xMidYMid meet" version="1.0"><defs><clipPath id="0d0c1ff496"><path d="M 0 641 L 421.605469 641 L 421.605469 799 L 0 799 Z M 0 641 " clip-rule="nonzero"/></clipPath><clipPath id="387ea9a409"><path d="M 56 675 L 111 675 L 111 714 L 56 714 Z M 56 675 " clip-rule="nonzero"/></clipPath><clipPath id="bedc3f437f"><path d="M -6.949219 720.226562 C -8.113281 725.917969 -24.1875 719.386719 -28.078125 721.109375 C -40.910156 726.769531 -33.390625 741.476562 -37.410156 742.683594 C -44.925781 744.964844 -62.039062 743.109375 -67.613281 749.835938 C -68.90625 751.480469 -63.332031 750.691406 -61.261719 750.792969 C -55.6875 751.054688 -49.984375 749.40625 -44.410156 750.378906 C -38.058594 751.492188 -32.746094 755.550781 -26.003906 755.652344 C -16.277344 755.808594 -7.59375 750.847656 1.867188 753.011719 C 2.515625 753.179688 2.125 753.683594 2.390625 754.136719 C 3.035156 755.613281 -12.78125 762.882812 -14.203125 768.972656 C -15.242188 773.714844 -3.964844 780.234375 -0.464844 781.722656 C 6.53125 784.792969 48.140625 789.746094 56.441406 789.601562 C 63.828125 789.472656 74.71875 782.203125 81.328125 783.730469 C 95.976562 787.125 99.476562 792.011719 118.402344 792.308594 C 127.214844 792.453125 141.867188 781.425781 149.253906 784.316406 C 158.585938 787.902344 162.734375 796.121094 173.621094 798.011719 C 190.605469 800.9375 210.4375 793.347656 227.289062 791.738281 C 235.453125 790.976562 241.804688 784.132812 249.195312 783.421875 C 253.34375 783.03125 254.507812 789.03125 259.175781 789.511719 C 263.582031 789.976562 269.027344 786.738281 273.433594 787.761719 C 284.839844 790.40625 297.800781 790.769531 310.117188 788.1875 C 315.953125 786.984375 319.710938 781.929688 325.804688 780.453125 C 330.210938 779.390625 336.042969 783.472656 340.96875 783.707031 C 350.820312 784.171875 358.078125 780.195312 365.597656 775.515625 C 375.839844 769.089844 392.429688 771.007812 403.710938 769.945312 C 405.136719 769.816406 421.597656 769.140625 421.464844 768.261719 C 421.339844 766.511719 390.746094 763.855469 388.671875 758.894531 C 382.320312 744.808594 367.023438 742.785156 365.859375 740.753906 C 362.359375 735.269531 365.988281 722.921875 351.082031 717.167969 C 344.082031 714.449219 336.304688 718.722656 330.339844 716.40625 C 310.117188 708.617188 303.507812 683.585938 279.007812 681.847656 C 269.417969 681.160156 259.304688 684.996094 252.566406 691.371094 C 246.214844 697.398438 242.582031 710.753906 231.566406 708.203125 C 227.546875 707.296875 223.53125 700.894531 220.027344 698.757812 C 217.695312 697.320312 208.621094 697.890625 207.710938 695.632812 C 206.027344 691.839844 215.878906 685.230469 207.195312 674.605469 C 207.0625 674.308594 206.675781 674.125 206.414062 673.890625 C 202.269531 670.496094 199.160156 673.359375 195.269531 671.832031 C 190.605469 670.042969 187.492188 664.277344 182.046875 663.71875 C 177.121094 663.214844 172.453125 668.992188 168.308594 667.359375 C 147.957031 659.496094 141.085938 636.871094 112.828125 642.171875 C 102.847656 644.023438 73.679688 670.121094 72.644531 680.332031 C 71.863281 688.289062 84.828125 706.675781 78.609375 709.433594 C 72.773438 712.011719 68.367188 707.671875 62.402344 708.230469 C 60.070312 708.460938 58.640625 711.714844 56.570312 711.921875 C 55.792969 711.988281 44.644531 695.570312 40.363281 693.546875 C 28.441406 687.859375 13.40625 701.933594 7.828125 708.734375 C 4.847656 712.375 -7.203125 706.84375 -9.925781 718.996094 C -10.058594 719.632812 -6.949219 720.226562 -6.949219 720.226562 Z M -6.949219 720.226562 " clip-rule="evenodd"/></clipPath><clipPath id="b0e94c0a01"><path d="M 0 660 L 421.605469 660 L 421.605469 799 L 0 799 Z M 0 660 " clip-rule="nonzero"/></clipPath><clipPath id="0712231086"><path d="M -6.949219 720.226562 C -8.113281 725.917969 -24.1875 719.386719 -28.078125 721.109375 C -40.910156 726.769531 -33.390625 741.476562 -37.410156 742.683594 C -44.925781 744.964844 -62.039062 743.109375 -67.613281 749.835938 C -68.90625 751.480469 -63.332031 750.691406 -61.261719 750.792969 C -55.6875 751.054688 -49.984375 749.40625 -44.410156 750.378906 C -38.058594 751.492188 -32.746094 755.550781 -26.003906 755.652344 C -16.277344 755.808594 -7.59375 750.847656 1.867188 753.011719 C 2.515625 753.179688 2.125 753.683594 2.390625 754.136719 C 3.035156 755.613281 -12.78125 762.882812 -14.203125 768.972656 C -15.242188 773.714844 -3.964844 780.234375 -0.464844 781.722656 C 6.53125 784.792969 48.140625 789.746094 56.441406 789.601562 C 63.828125 789.472656 74.71875 782.203125 81.328125 783.730469 C 95.976562 787.125 99.476562 792.011719 118.402344 792.308594 C 127.214844 792.453125 141.867188 781.425781 149.253906 784.316406 C 158.585938 787.902344 162.734375 796.121094 173.621094 798.011719 C 190.605469 800.9375 210.4375 793.347656 227.289062 791.738281 C 235.453125 790.976562 241.804688 784.132812 249.195312 783.421875 C 253.34375 783.03125 254.507812 789.03125 259.175781 789.511719 C 263.582031 789.976562 269.027344 786.738281 273.433594 787.761719 C 284.839844 790.40625 297.800781 790.769531 310.117188 788.1875 C 315.953125 786.984375 319.710938 781.929688 325.804688 780.453125 C 330.210938 779.390625 336.042969 783.472656 340.96875 783.707031 C 350.820312 784.171875 358.078125 780.195312 365.597656 775.515625 C 375.839844 769.089844 392.429688 771.007812 403.710938 769.945312 C 405.136719 769.816406 421.597656 769.140625 421.464844 768.261719 C 421.339844 766.511719 390.746094 763.855469 388.671875 758.894531 C 382.320312 744.808594 367.023438 742.785156 365.859375 740.753906 C 362.359375 735.269531 365.988281 722.921875 351.082031 717.167969 C 344.082031 714.449219 336.304688 718.722656 330.339844 716.40625 C 310.117188 708.617188 303.507812 683.585938 279.007812 681.847656 C 269.417969 681.160156 259.304688 684.996094 252.566406 691.371094 C 246.214844 697.398438 242.582031 710.753906 231.566406 708.203125 C 227.546875 707.296875 223.53125 700.894531 220.027344 698.757812 C 217.695312 697.320312 208.621094 697.890625 207.710938 695.632812 C 206.027344 691.839844 215.878906 685.230469 207.195312 674.605469 C 207.0625 674.308594 206.675781 674.125 206.414062 673.890625 C 202.269531 670.496094 199.160156 673.359375 195.269531 671.832031 C 190.605469 670.042969 187.492188 664.277344 182.046875 663.71875 C 177.121094 663.214844 172.453125 668.992188 168.308594 667.359375 C 147.957031 659.496094 141.085938 636.871094 112.828125 642.171875 C 102.847656 644.023438 73.679688 670.121094 72.644531 680.332031 C 71.863281 688.289062 84.828125 706.675781 78.609375 709.433594 C 72.773438 712.011719 68.367188 707.671875 62.402344 708.230469 C 60.070312 708.460938 58.640625 711.714844 56.570312 711.921875 C 55.792969 711.988281 44.644531 695.570312 40.363281 693.546875 C 28.441406 687.859375 13.40625 701.933594 7.828125 708.734375 C 4.847656 712.375 -7.203125 706.84375 -9.925781 718.996094 C -10.058594 719.632812 -6.949219 720.226562 -6.949219 720.226562 Z M -6.949219 720.226562 " clip-rule="evenodd"/></clipPath><clipPath id="7bf0394cce"><path d="M 182 746 L 237 746 L 237 767 L 182 767 Z M 182 746 " clip-rule="nonzero"/></clipPath><clipPath id="fe662c8cb1"><path d="M -6.949219 720.226562 C -8.113281 725.917969 -24.1875 719.386719 -28.078125 721.109375 C -40.910156 726.769531 -33.390625 741.476562 -37.410156 742.683594 C -44.925781 744.964844 -62.039062 743.109375 -67.613281 749.835938 C -68.90625 751.480469 -63.332031 750.691406 -61.261719 750.792969 C -55.6875 751.054688 -49.984375 749.40625 -44.410156 750.378906 C -38.058594 751.492188 -32.746094 755.550781 -26.003906 755.652344 C -16.277344 755.808594 -7.59375 750.847656 1.867188 753.011719 C 2.515625 753.179688 2.125 753.683594 2.390625 754.136719 C 3.035156 755.613281 -12.78125 762.882812 -14.203125 768.972656 C -15.242188 773.714844 -3.964844 780.234375 -0.464844 781.722656 C 6.53125 784.792969 48.140625 789.746094 56.441406 789.601562 C 63.828125 789.472656 74.71875 782.203125 81.328125 783.730469 C 95.976562 787.125 99.476562 792.011719 118.402344 792.308594 C 127.214844 792.453125 141.867188 781.425781 149.253906 784.316406 C 158.585938 787.902344 162.734375 796.121094 173.621094 798.011719 C 190.605469 800.9375 210.4375 793.347656 227.289062 791.738281 C 235.453125 790.976562 241.804688 784.132812 249.195312 783.421875 C 253.34375 783.03125 254.507812 789.03125 259.175781 789.511719 C 263.582031 789.976562 269.027344 786.738281 273.433594 787.761719 C 284.839844 790.40625 297.800781 790.769531 310.117188 788.1875 C 315.953125 786.984375 319.710938 781.929688 325.804688 780.453125 C 330.210938 779.390625 336.042969 783.472656 340.96875 783.707031 C 350.820312 784.171875 358.078125 780.195312 365.597656 775.515625 C 375.839844 769.089844 392.429688 771.007812 403.710938 769.945312 C 405.136719 769.816406 421.597656 769.140625 421.464844 768.261719 C 421.339844 766.511719 390.746094 763.855469 388.671875 758.894531 C 382.320312 744.808594 367.023438 742.785156 365.859375 740.753906 C 362.359375 735.269531 365.988281 722.921875 351.082031 717.167969 C 344.082031 714.449219 336.304688 718.722656 330.339844 716.40625 C 310.117188 708.617188 303.507812 683.585938 279.007812 681.847656 C 269.417969 681.160156 259.304688 684.996094 252.566406 691.371094 C 246.214844 697.398438 242.582031 710.753906 231.566406 708.203125 C 227.546875 707.296875 223.53125 700.894531 220.027344 698.757812 C 217.695312 697.320312 208.621094 697.890625 207.710938 695.632812 C 206.027344 691.839844 215.878906 685.230469 207.195312 674.605469 C 207.0625 674.308594 206.675781 674.125 206.414062 673.890625 C 202.269531 670.496094 199.160156 673.359375 195.269531 671.832031 C 190.605469 670.042969 187.492188 664.277344 182.046875 663.71875 C 177.121094 663.214844 172.453125 668.992188 168.308594 667.359375 C 147.957031 659.496094 141.085938 636.871094 112.828125 642.171875 C 102.847656 644.023438 73.679688 670.121094 72.644531 680.332031 C 71.863281 688.289062 84.828125 706.675781 78.609375 709.433594 C 72.773438 712.011719 68.367188 707.671875 62.402344 708.230469 C 60.070312 708.460938 58.640625 711.714844 56.570312 711.921875 C 55.792969 711.988281 44.644531 695.570312 40.363281 693.546875 C 28.441406 687.859375 13.40625 701.933594 7.828125 708.734375 C 4.847656 712.375 -7.203125 706.84375 -9.925781 718.996094 C -10.058594 719.632812 -6.949219 720.226562 -6.949219 720.226562 Z M -6.949219 720.226562 " clip-rule="evenodd"/></clipPath></defs><g clip-path="url(#0d0c1ff496)"><path fill="#fdfffe" d="M -6.945312 720.226562 C -8.113281 725.917969 -24.183594 719.386719 -28.074219 721.109375 C -40.910156 726.769531 -33.390625 741.476562 -37.410156 742.683594 C -44.925781 744.964844 -62.039062 743.109375 -67.609375 749.835938 C -68.90625 751.480469 -63.332031 750.691406 -61.261719 750.792969 C -55.6875 751.054688 -49.980469 749.40625 -44.410156 750.378906 C -38.058594 751.492188 -32.742188 755.550781 -26 755.652344 C -16.28125 755.808594 -7.59375 750.847656 1.867188 753.011719 C 2.515625 753.179688 2.128906 753.683594 2.386719 754.136719 C 3.035156 755.613281 -12.78125 762.882812 -14.207031 768.972656 C -15.242188 773.714844 -3.964844 780.234375 -0.464844 781.722656 C 6.535156 784.792969 48.144531 789.746094 56.441406 789.601562 C 63.828125 789.472656 74.71875 782.203125 81.328125 783.730469 C 95.976562 787.125 99.476562 792.011719 118.402344 792.308594 C 127.214844 792.453125 141.863281 781.425781 149.253906 784.316406 C 158.585938 787.902344 162.734375 796.121094 173.621094 798.011719 C 190.605469 800.9375 210.4375 793.347656 227.289062 791.738281 C 235.453125 790.976562 241.804688 784.132812 249.191406 783.421875 C 253.34375 783.03125 254.511719 789.03125 259.175781 789.511719 C 263.585938 789.976562 269.027344 786.738281 273.433594 787.761719 C 284.839844 790.40625 297.804688 790.769531 310.117188 788.1875 C 315.949219 786.984375 319.710938 781.929688 325.804688 780.453125 C 330.210938 779.390625 336.042969 783.472656 340.96875 783.707031 C 350.820312 784.171875 358.078125 780.195312 365.597656 775.515625 C 375.839844 769.089844 392.429688 771.007812 403.707031 769.945312 C 405.132812 769.816406 421.597656 769.140625 421.46875 768.261719 C 421.339844 766.511719 390.746094 763.855469 388.671875 758.890625 C 382.320312 744.808594 367.023438 742.785156 365.855469 740.753906 C 362.359375 735.269531 365.988281 722.921875 351.082031 717.167969 C 344.082031 714.449219 336.304688 718.726562 330.34375 716.40625 C 310.117188 708.617188 303.507812 683.585938 279.007812 681.847656 C 269.417969 681.160156 259.304688 684.996094 252.566406 691.371094 C 246.214844 697.398438 242.582031 710.753906 231.566406 708.203125 C 227.546875 707.296875 223.527344 700.894531 220.027344 698.757812 C 217.695312 697.320312 208.621094 697.890625 207.714844 695.632812 C 206.027344 691.839844 215.878906 685.230469 207.195312 674.605469 C 207.066406 674.308594 206.675781 674.125 206.417969 673.890625 C 202.269531 670.496094 199.160156 673.359375 195.269531 671.832031 C 190.605469 670.042969 187.492188 664.277344 182.046875 663.71875 C 177.121094 663.214844 172.457031 668.992188 168.308594 667.363281 C 147.957031 659.496094 141.085938 636.871094 112.828125 642.171875 C 102.847656 644.023438 73.683594 670.121094 72.644531 680.332031 C 71.867188 688.289062 84.828125 706.675781 78.605469 709.433594 C 72.773438 712.011719 68.363281 707.671875 62.402344 708.230469 C 60.070312 708.460938 58.644531 711.714844 56.570312 711.921875 C 55.792969 711.988281 44.644531 695.570312 40.367188 693.546875 C 28.441406 687.859375 13.40625 701.933594 7.832031 708.734375 C 4.847656 712.375 -7.207031 706.84375 -9.925781 718.996094 C -10.058594 719.632812 -6.945312 720.226562 -6.945312 720.226562 Z M -6.945312 720.226562 " fill-opacity="1" fill-rule="evenodd"/></g><g clip-path="url(#387ea9a409)"><g clip-path="url(#bedc3f437f)"><path fill="#d8e8f5" d="M 62.921875 675.332031 C 56.570312 681.914062 74.589844 693.742188 79.644531 694.507812 C 83.144531 695.039062 86.382812 691.929688 89.238281 691.65625 C 90.273438 691.554688 86.253906 697.734375 86.382812 699.328125 C 86.511719 701.128906 90.402344 703.511719 91.957031 703.863281 C 95.847656 704.78125 101.292969 706.285156 105.441406 706.480469 C 105.828125 706.507812 110.363281 705.636719 110.492188 706.390625 C 110.882812 710.910156 98.570312 713.566406 95.976562 713.605469 C 85.734375 713.789062 46.460938 700.273438 58.253906 686.035156 C 59.679688 684.21875 62.921875 675.332031 62.921875 675.332031 Z M 62.921875 675.332031 " fill-opacity="1" fill-rule="evenodd"/></g></g><g clip-path="url(#b0e94c0a01)"><g clip-path="url(#0712231086)"><path fill="#d8e8f5" d="M 202.269531 665.03125 C 190.605469 679.0625 193.585938 689.804688 173.496094 701.582031 C 167.660156 705.015625 158.976562 709.265625 151.972656 709.460938 C 150.550781 709.5 141.085938 707.246094 139.917969 708.667969 C 139.273438 709.421875 151.84375 714.914062 153.011719 715.214844 C 158.328125 716.664062 189.050781 712.597656 188.789062 723.492188 C 188.660156 735 175.4375 735.128906 168.566406 740.207031 C 165.457031 742.527344 167.140625 747.203125 163.253906 750.054688 C 157.292969 754.433594 143.160156 753.269531 136.160156 755.367188 C 127.734375 757.894531 124.496094 765.460938 118.011719 769.542969 C 115.03125 771.382812 112.050781 764.386719 111.53125 762.753906 C 108.160156 753.230469 106.089844 741.464844 91.699219 742.824219 C 88.070312 743.175781 82.496094 750.507812 81.847656 750.378906 C 75.367188 748.890625 66.421875 740.597656 59.292969 745.910156 C 51.902344 751.363281 61.625 759.59375 50.21875 761.949219 C 46.328125 762.765625 29.476562 760.640625 27.144531 756.351562 C 23.515625 749.707031 34.921875 744.976562 32.589844 739.484375 C 29.738281 733.171875 20.273438 745.703125 16.386719 746.078125 C 10.941406 746.582031 8.480469 734.675781 5.628906 731.511719 C 1.21875 726.292969 -6.296875 731.992188 -8.628906 728.195312 C -13.039062 721.082031 -4.226562 710.003906 -14.722656 704.640625 C -32.09375 695.804688 -81.609375 729.917969 -73.832031 751.894531 C -63.464844 780.804688 -9.667969 793.554688 15.738281 801.042969 C 25.71875 803.957031 35.183594 809.816406 45.164062 812.121094 C 66.03125 816.953125 93.125 809.984375 114.902344 810.347656 C 148.476562 810.902344 182.957031 813.625 216.527344 810.4375 C 229.882812 809.179688 243.101562 800.691406 256.066406 800.460938 C 278.101562 800.058594 299.488281 802.222656 321.527344 803.984375 C 354.972656 806.679688 385.171875 801.625 415.894531 788.8125 C 422.375 786.089844 444.800781 780.089844 444.929688 770.085938 C 445.0625 761.535156 435.726562 756.054688 429.894531 751.261719 C 414.855469 738.847656 402.152344 726.601562 379.601562 738.898438 C 367.933594 745.25 361.453125 771.589844 345.636719 758.476562 C 343.304688 756.535156 347.582031 746.441406 346.414062 746.324219 C 340.0625 745.664062 329.046875 751.609375 326.839844 741.554688 C 324.765625 731.644531 344.988281 707.605469 326.96875 701.828125 C 303.636719 694.339844 314.398438 716.25 311.414062 722.378906 C 309.46875 726.523438 303.25 724.632812 300.136719 726.578125 C 297.414062 728.261719 301.953125 735.207031 300.527344 738.226562 C 298.324219 742.667969 290.027344 745.546875 285.75 747.414062 C 267.601562 755.445312 259.953125 743.746094 251.785156 730.761719 C 248.675781 725.722656 238.695312 728.339844 238.046875 720.773438 C 236.878906 708.085938 241.546875 698.328125 232.863281 686.601562 C 225.859375 677.054688 210.953125 671.171875 206.160156 660.3125 C 205.769531 659.199219 202.269531 665.03125 202.269531 665.03125 Z M 202.269531 665.03125 " fill-opacity="1" fill-rule="evenodd"/></g></g><g clip-path="url(#7bf0394cce)"><g clip-path="url(#fe662c8cb1)"><path fill="#fdfffe" d="M 223.917969 749.175781 C 217.046875 740.144531 199.933594 753.503906 193.84375 755.34375 C 191.898438 755.914062 180.625 752.699219 182.4375 758.761719 C 184.121094 764.492188 220.417969 768.15625 226.769531 766.238281 C 235.972656 763.453125 240.25 756.730469 231.824219 749.796875 C 230.65625 748.785156 223.917969 749.175781 223.917969 749.175781 Z M 223.917969 749.175781 " fill-opacity="1" fill-rule="evenodd"/></g></g></svg>