<svg xmlns="http://www.w3.org/2000/svg" xmlns:xlink="http://www.w3.org/1999/xlink" width="1080" zoomAndPan="magnify" viewBox="0 0 810 809.999993" height="1080" preserveAspectRatio="xMidYMid meet" version="1.0"><path fill="#e3f2ff" d="M 350.816406 325.902344 C 359.664062 308.835938 340.117188 291.417969 312.289062 290.707031 C 311.992188 282.328125 307.28125 273.421875 298.96875 267.230469 C 284.828125 256.691406 266.140625 258.371094 259.328125 271.34375 C 239.683594 261.933594 216.425781 270.878906 206.265625 292.917969 C 206.199219 292.992188 206.132812 293.074219 206.066406 293.148438 C 190.109375 286.765625 170.796875 293.195312 165.023438 306.796875 C 134.730469 290.351562 84.9375 302.816406 84.9375 326.089844 C 84.9375 346.601562 124.753906 359.859375 156.59375 349.042969 C 168.910156 373.152344 196.652344 378.207031 205.621094 358.503906 C 217.871094 372.960938 236.359375 376.679688 251.808594 369.289062 C 264.292969 375.261719 279.375 374.179688 291.515625 364.738281 C 320.878906 381.75 374.671875 370.683594 374.671875 347.746094 C 374.671875 338.414062 365.078125 330.273438 350.816406 325.902344 " fill-opacity="1" fill-rule="nonzero"/><path fill="#ffffff" d="M 352.933594 317.523438 C 346.847656 309.097656 331.890625 303.039062 314.199219 302.65625 C 313.894531 295.382812 309.066406 287.652344 300.554688 282.277344 C 286.082031 273.140625 266.9375 274.5625 259.921875 285.84375 C 239.742188 277.660156 215.925781 285.476562 205.539062 304.578125 C 205.464844 304.644531 205.402344 304.710938 205.332031 304.78125 C 189.265625 299.339844 169.300781 304.59375 163.269531 316.628906 C 138.539062 305.269531 98.171875 309.492188 85.046875 324.308594 C 87.640625 301.9375 135.804688 290.9375 165.019531 306.796875 C 170.824219 293.125 190.207031 286.792969 206.066406 293.152344 C 206.132812 293.074219 206.199219 292.992188 206.265625 292.917969 C 216.472656 270.773438 239.785156 261.976562 259.328125 271.34375 C 266.09375 258.417969 284.777344 256.65625 298.96875 267.230469 C 307.28125 273.421875 311.992188 282.328125 312.289062 290.707031 C 334.890625 291.28125 352.933594 303.066406 352.933594 317.523438 " fill-opacity="1" fill-rule="nonzero"/><path fill="#b6d5f0" d="M 374.671875 347.746094 C 374.671875 370.46875 321.160156 381.910156 291.515625 364.738281 C 279.367188 374.179688 264.289062 375.265625 251.808594 369.285156 C 236.359375 376.683594 217.867188 372.953125 205.617188 358.503906 C 196.75 378.027344 169.113281 373.417969 156.59375 349.039062 C 123.183594 360.394531 81.273438 345.195312 85.179688 323.347656 C 88.746094 334.1875 127.464844 339.882812 156.59375 334.433594 C 168.929688 347.691406 196.691406 350.4375 205.617188 339.632812 C 218.1875 347.773438 236.765625 349.5 251.808594 345.554688 C 264.394531 348.855469 279.445312 348.207031 291.515625 343.054688 C 300.257812 345.839844 315.367188 354.148438 329.371094 354.148438 C 349.910156 354.148438 365.902344 346.425781 371.992188 339.394531 C 373.726562 342.007812 374.671875 344.816406 374.671875 347.746094 " fill-opacity="1" fill-rule="nonzero"/><path fill="#b6d5f0" d="M 352.929688 317.253906 C 352.929688 317.117188 352.929688 316.984375 352.921875 316.851562 C 352.9375 316.972656 352.9375 317.195312 352.929688 317.253906 " fill-opacity="1" fill-rule="nonzero"/><path fill="#b6d5f0" d="M 340.1875 362.019531 C 321.074219 364.398438 294.492188 351.453125 284.648438 335.023438 C 299.511719 347.925781 320.835938 358.292969 340.1875 362.019531 " fill-opacity="1" fill-rule="nonzero"/><path fill="#b6d5f0" d="M 175.019531 325.195312 C 167.21875 338.414062 147.484375 344.15625 133.820312 337.25 C 147.949219 338.433594 163.773438 333.804688 175.019531 325.195312 " fill-opacity="1" fill-rule="nonzero"/><path fill="#b6d5f0" d="M 274.453125 335.207031 C 263.078125 353.179688 242.246094 353.113281 230.941406 335.207031 C 244.339844 343.945312 261.050781 343.945312 274.453125 335.207031 " fill-opacity="1" fill-rule="nonzero"/><path fill="#b6d5f0" d="M 296.210938 298.957031 C 284.835938 316.929688 264.003906 316.863281 252.699219 298.957031 C 266.097656 307.695312 282.808594 307.699219 296.210938 298.957031 " fill-opacity="1" fill-rule="nonzero"/></svg>