<svg xmlns="http://www.w3.org/2000/svg" xmlns:xlink="http://www.w3.org/1999/xlink" width="1080" zoomAndPan="magnify" viewBox="0 0 810 809.999993" height="1080" preserveAspectRatio="xMidYMid meet" version="1.0"><defs><clipPath id="36569cf8a3"><path d="M 416.351562 655 L 803 655 L 803 807 L 416.351562 807 Z M 416.351562 655 " clip-rule="nonzero"/></clipPath></defs><g clip-path="url(#36569cf8a3)"><path fill="#cfe2f0" d="M 449.609375 727.957031 C 444.246094 719.390625 445.160156 707.722656 451.800781 699.988281 C 458.441406 692.25 470.359375 688.964844 480.382812 692.109375 C 480.355469 684.3125 485.804688 676.746094 493.503906 673.886719 C 501.207031 671.023438 510.671875 673.046875 516.304688 678.761719 C 517.945312 661.941406 539.933594 651.453125 556.898438 656.929688 C 573.867188 662.402344 584.332031 679.5625 585.449219 696.421875 C 588.386719 690.042969 599.863281 690.972656 604.53125 696.355469 C 609.210938 690.648438 617.5625 686.359375 624.414062 689.582031 C 631.261719 692.804688 635.078125 700.867188 633.042969 707.820312 C 648.398438 694.152344 677.53125 699.476562 686.335938 717.5625 C 693.984375 699.261719 715.578125 686.332031 736.121094 689.878906 C 756.664062 693.425781 772.351562 714.902344 766.367188 733.746094 C 775.757812 728.257812 795.742188 726.925781 801.28125 738.308594 C 806.386719 748.796875 790.789062 764.820312 762.300781 766.714844 C 761.941406 766.738281 748.269531 786.839844 718.683594 790.75 C 692.234375 794.246094 667.175781 782.007812 655.109375 765.402344 C 653.71875 780.261719 634.695312 782.753906 626.378906 775.535156 C 614.417969 793.277344 589.214844 801.984375 567.90625 795.742188 C 557.527344 805.949219 540.457031 809.542969 526.449219 804.46875 C 512.441406 799.394531 502.328125 785.957031 501.890625 771.828125 C 497.246094 777.726562 490.445312 782.613281 482.667969 783.152344 C 474.894531 783.6875 466.5 778.660156 465.574219 771.371094 C 456.460938 776.15625 445.34375 778.15625 435.40625 775.160156 C 425.46875 772.164062 416.359375 763.59375 416.703125 753.773438 C 417.511719 730.480469 449.609375 727.957031 449.609375 727.957031 Z M 449.609375 727.957031 " fill-opacity="1" fill-rule="nonzero"/></g><path fill="#f2f8fc" d="M 801.449219 738.703125 C 798.425781 744.832031 788.992188 749.960938 779.9375 751.863281 C 768.785156 754.207031 758.808594 752.15625 758.808594 752.15625 C 758.808594 752.15625 743.546875 763.878906 715.667969 767.6875 C 676.222656 773.074219 645.234375 732.527344 645.234375 732.527344 C 645.234375 732.527344 643.472656 744.832031 633.789062 746.589844 C 624.105469 748.347656 617.0625 736.921875 617.0625 736.921875 C 600.332031 769.445312 570.398438 752.742188 570.398438 752.742188 C 541.34375 786.144531 507.890625 750.984375 507.890625 750.984375 C 489.402344 776.476562 476.195312 753.621094 476.195312 753.621094 C 476.195312 753.621094 462.988281 757.136719 460.347656 746.589844 C 457.707031 736.042969 477.074219 729.890625 477.074219 729.890625 C 444.5 712.3125 480.378906 692.109375 480.378906 692.109375 C 480.378906 691.558594 480.410156 691.007812 480.460938 690.460938 C 481.144531 683.265625 486.347656 676.546875 493.503906 673.886719 C 501.207031 671.023438 510.671875 673.046875 516.304688 678.761719 C 517.945312 661.941406 539.933594 651.453125 556.898438 656.929688 C 573.863281 662.402344 584.328125 679.5625 585.449219 696.421875 C 588.386719 690.042969 599.863281 690.972656 604.527344 696.355469 C 609.210938 690.648438 617.5625 686.359375 624.410156 689.582031 C 631.261719 692.804688 635.078125 700.867188 633.042969 707.820312 C 648.394531 694.152344 677.527344 699.476562 686.335938 717.5625 C 693.984375 699.261719 715.578125 686.332031 736.121094 689.878906 C 756.664062 693.425781 772.351562 714.902344 766.363281 733.746094 C 775.757812 728.257812 795.742188 726.925781 801.28125 738.308594 C 801.34375 738.4375 801.390625 738.574219 801.449219 738.703125 Z M 801.449219 738.703125 " fill-opacity="1" fill-rule="nonzero"/></svg>