<svg xmlns="http://www.w3.org/2000/svg" xmlns:xlink="http://www.w3.org/1999/xlink" width="1080" zoomAndPan="magnify" viewBox="0 0 810 809.999993" height="1080" preserveAspectRatio="xMidYMid meet" version="1.0"><path fill="#cfe2f0" d="M 433.21875 725.132812 C 427.699219 716.28125 428.640625 704.226562 435.472656 696.234375 C 442.300781 688.242188 454.566406 684.847656 464.878906 688.09375 C 464.851562 680.039062 470.457031 672.222656 478.378906 669.265625 C 486.304688 666.308594 496.039062 668.398438 501.839844 674.300781 C 503.523438 656.925781 526.148438 646.089844 543.601562 651.746094 C 561.058594 657.402344 571.824219 675.132812 572.976562 692.550781 C 575.996094 685.960938 587.808594 686.917969 592.605469 692.484375 C 597.421875 686.585938 606.015625 682.152344 613.0625 685.484375 C 620.109375 688.8125 624.035156 697.144531 621.941406 704.328125 C 637.738281 690.203125 667.710938 695.707031 676.773438 714.394531 C 684.640625 695.484375 706.859375 682.125 727.996094 685.789062 C 749.128906 689.453125 765.269531 711.644531 759.109375 731.113281 C 768.777344 725.445312 789.335938 724.066406 795.035156 735.828125 C 800.285156 746.664062 784.238281 763.21875 754.929688 765.179688 C 754.558594 765.203125 740.492188 785.972656 710.050781 790.011719 C 682.839844 793.625 657.058594 780.980469 644.644531 763.824219 C 643.210938 779.175781 623.640625 781.753906 615.085938 774.292969 C 602.777344 792.625 576.851562 801.621094 554.929688 795.171875 C 544.25 805.71875 526.6875 809.429688 512.273438 804.1875 C 497.863281 798.945312 487.457031 785.058594 487.003906 770.464844 C 482.226562 776.554688 475.230469 781.609375 467.230469 782.160156 C 459.230469 782.714844 450.59375 777.523438 449.644531 769.988281 C 440.269531 774.933594 428.832031 777 418.605469 773.90625 C 408.378906 770.8125 399.007812 761.953125 399.359375 751.808594 C 400.195312 727.742188 433.21875 725.132812 433.21875 725.132812 Z M 433.21875 725.132812 " fill-opacity="1" fill-rule="nonzero"/><path fill="#f2f8fc" d="M 795.203125 736.238281 C 792.097656 742.570312 782.390625 747.871094 773.074219 749.835938 C 761.601562 752.257812 751.335938 750.136719 751.335938 750.136719 C 751.335938 750.136719 735.632812 762.246094 706.949219 766.183594 C 666.367188 771.75 634.484375 729.855469 634.484375 729.855469 C 634.484375 729.855469 632.671875 742.570312 622.710938 744.386719 C 612.746094 746.203125 605.5 734.398438 605.5 734.398438 C 588.289062 768 557.492188 750.746094 557.492188 750.746094 C 527.597656 785.253906 493.179688 748.929688 493.179688 748.929688 C 474.15625 775.265625 460.570312 751.652344 460.570312 751.652344 C 460.570312 751.652344 446.984375 755.285156 444.265625 744.386719 C 441.546875 733.488281 461.476562 727.132812 461.476562 727.132812 C 427.960938 708.96875 464.875 688.09375 464.875 688.09375 C 464.875 687.523438 464.90625 686.957031 464.960938 686.390625 C 465.660156 678.957031 471.015625 672.011719 478.378906 669.265625 C 486.304688 666.308594 496.039062 668.398438 501.835938 674.300781 C 503.523438 656.925781 526.144531 646.089844 543.601562 651.746094 C 561.058594 657.402344 571.824219 675.132812 572.976562 692.550781 C 575.996094 685.960938 587.804688 686.917969 592.605469 692.484375 C 597.421875 686.585938 606.015625 682.152344 613.0625 685.484375 C 620.109375 688.8125 624.035156 697.144531 621.941406 704.328125 C 637.738281 690.203125 667.710938 695.707031 676.773438 714.394531 C 684.640625 695.484375 706.859375 682.125 727.992188 685.789062 C 749.128906 689.453125 765.269531 711.644531 759.109375 731.113281 C 768.773438 725.445312 789.332031 724.066406 795.03125 735.828125 C 795.097656 735.960938 795.144531 736.101562 795.203125 736.238281 Z M 795.203125 736.238281 " fill-opacity="1" fill-rule="nonzero"/></svg>