<svg xmlns="http://www.w3.org/2000/svg" xmlns:xlink="http://www.w3.org/1999/xlink" width="1080" zoomAndPan="magnify" viewBox="0 0 810 809.999993" height="1080" preserveAspectRatio="xMidYMid meet" version="1.0"><defs><clipPath id="c2d6309865"><path d="M 17 260 L 307.640625 260 L 307.640625 373 L 17 373 Z M 17 260 " clip-rule="nonzero"/></clipPath><clipPath id="d6313171c9"><path d="M 17 323 L 307.640625 323 L 307.640625 374 L 17 374 Z M 17 323 " clip-rule="nonzero"/></clipPath></defs><g clip-path="url(#c2d6309865)"><path fill="#e3f2ff" d="M 283.457031 325.902344 C 292.308594 308.835938 272.757812 291.417969 244.933594 290.707031 C 244.632812 282.328125 239.921875 273.421875 231.613281 267.230469 C 217.46875 256.691406 198.78125 258.371094 191.96875 271.34375 C 172.328125 261.933594 149.066406 270.878906 138.90625 292.917969 C 138.839844 292.992188 138.773438 293.074219 138.707031 293.148438 C 122.753906 286.765625 103.4375 293.195312 97.664062 306.796875 C 67.371094 290.351562 17.582031 302.816406 17.582031 326.089844 C 17.582031 346.601562 57.394531 359.859375 89.238281 349.042969 C 101.550781 373.152344 129.292969 378.207031 138.261719 358.503906 C 150.511719 372.960938 169 376.679688 184.449219 369.289062 C 196.9375 375.261719 212.015625 374.179688 224.15625 364.738281 C 253.519531 381.75 307.316406 370.683594 307.316406 347.746094 C 307.316406 338.414062 297.71875 330.273438 283.457031 325.902344 " fill-opacity="1" fill-rule="nonzero"/></g><path fill="#ffffff" d="M 285.574219 317.523438 C 279.488281 309.097656 264.53125 303.039062 246.839844 302.65625 C 246.535156 295.382812 241.707031 287.652344 233.195312 282.277344 C 218.722656 273.140625 199.582031 274.5625 192.5625 285.84375 C 172.382812 277.660156 148.570312 285.476562 138.183594 304.578125 C 138.109375 304.644531 138.042969 304.710938 137.976562 304.78125 C 121.90625 299.339844 101.941406 304.59375 95.914062 316.628906 C 71.179688 305.269531 30.8125 309.492188 17.691406 324.308594 C 20.28125 301.9375 68.445312 290.9375 97.660156 306.796875 C 103.464844 293.125 122.847656 286.792969 138.710938 293.152344 C 138.773438 293.074219 138.84375 292.992188 138.90625 292.917969 C 149.117188 270.773438 172.425781 261.976562 191.96875 271.34375 C 198.734375 258.417969 217.421875 256.65625 231.613281 267.230469 C 239.921875 273.421875 244.632812 282.328125 244.933594 290.707031 C 267.53125 291.28125 285.574219 303.066406 285.574219 317.523438 " fill-opacity="1" fill-rule="nonzero"/><g clip-path="url(#d6313171c9)"><path fill="#b6d5f0" d="M 307.316406 347.746094 C 307.316406 370.46875 253.800781 381.910156 224.15625 364.738281 C 212.007812 374.179688 196.929688 375.265625 184.449219 369.285156 C 169 376.683594 150.507812 372.953125 138.257812 358.503906 C 129.390625 378.027344 101.757812 373.417969 89.238281 349.039062 C 55.824219 360.394531 13.914062 345.195312 17.820312 323.347656 C 21.386719 334.1875 60.105469 339.882812 89.238281 334.433594 C 101.570312 347.691406 129.332031 350.4375 138.257812 339.632812 C 150.828125 347.773438 169.410156 349.5 184.449219 345.554688 C 197.035156 348.855469 212.085938 348.207031 224.15625 343.054688 C 232.902344 345.839844 248.007812 354.148438 262.015625 354.148438 C 282.550781 354.148438 298.542969 346.425781 304.636719 339.394531 C 306.367188 342.007812 307.316406 344.816406 307.316406 347.746094 " fill-opacity="1" fill-rule="nonzero"/></g><path fill="#b6d5f0" d="M 285.570312 317.253906 C 285.570312 317.117188 285.570312 316.984375 285.566406 316.851562 C 285.582031 316.972656 285.578125 317.195312 285.570312 317.253906 " fill-opacity="1" fill-rule="nonzero"/><path fill="#b6d5f0" d="M 272.828125 362.019531 C 253.714844 364.398438 227.132812 351.453125 217.289062 335.023438 C 232.152344 347.925781 253.476562 358.292969 272.828125 362.019531 " fill-opacity="1" fill-rule="nonzero"/><path fill="#b6d5f0" d="M 107.660156 325.195312 C 99.863281 338.414062 80.128906 344.15625 66.460938 337.25 C 80.59375 338.433594 96.414062 333.804688 107.660156 325.195312 " fill-opacity="1" fill-rule="nonzero"/><path fill="#b6d5f0" d="M 207.09375 335.207031 C 195.722656 353.179688 174.890625 353.113281 163.582031 335.207031 C 176.980469 343.945312 193.691406 343.945312 207.09375 335.207031 " fill-opacity="1" fill-rule="nonzero"/><path fill="#b6d5f0" d="M 228.851562 298.957031 C 217.480469 316.929688 196.644531 316.863281 185.339844 298.957031 C 198.738281 307.695312 215.449219 307.699219 228.851562 298.957031 " fill-opacity="1" fill-rule="nonzero"/></svg>