<svg xmlns="http://www.w3.org/2000/svg" xmlns:xlink="http://www.w3.org/1999/xlink" width="1080" zoomAndPan="magnify" viewBox="0 0 810 809.999993" height="1080" preserveAspectRatio="xMidYMid meet" version="1.0"><defs><clipPath id="99160f9acc"><path d="M 52 655 L 498.140625 655 L 498.140625 800 L 52 800 Z M 52 655 " clip-rule="nonzero"/></clipPath><clipPath id="168873d082"><path d="M 165 686 L 215 686 L 215 722 L 165 722 Z M 165 686 " clip-rule="nonzero"/></clipPath><clipPath id="643d8da172"><path d="M 107.59375 727.605469 C 106.535156 732.800781 91.886719 726.835938 88.34375 728.410156 C 76.644531 733.582031 83.496094 747.011719 79.832031 748.113281 C 72.984375 750.195312 57.390625 748.503906 52.3125 754.644531 C 51.132812 756.148438 56.207031 755.425781 58.097656 755.519531 C 63.179688 755.757812 68.378906 754.253906 73.453125 755.140625 C 79.246094 756.160156 84.085938 759.863281 90.234375 759.957031 C 99.089844 760.101562 107.007812 755.566406 115.632812 757.542969 C 116.21875 757.699219 115.863281 758.160156 116.105469 758.574219 C 116.691406 759.921875 102.28125 766.5625 100.980469 772.125 C 100.035156 776.457031 110.3125 782.40625 113.5 783.769531 C 119.878906 786.574219 157.800781 791.09375 165.363281 790.964844 C 172.09375 790.84375 182.015625 784.207031 188.042969 785.601562 C 201.390625 788.703125 204.582031 793.164062 221.828125 793.4375 C 229.859375 793.566406 243.210938 783.496094 249.941406 786.136719 C 258.449219 789.414062 262.230469 796.917969 272.152344 798.644531 C 287.625 801.316406 305.699219 794.382812 321.058594 792.917969 C 328.5 792.21875 334.285156 785.96875 341.019531 785.320312 C 344.800781 784.964844 345.867188 790.441406 350.117188 790.878906 C 354.136719 791.308594 359.097656 788.347656 363.113281 789.285156 C 373.507812 791.699219 385.320312 792.027344 396.539062 789.671875 C 401.859375 788.574219 405.285156 783.957031 410.839844 782.609375 C 414.851562 781.640625 420.167969 785.367188 424.65625 785.578125 C 433.636719 786.003906 440.25 782.371094 447.101562 778.101562 C 456.433594 772.230469 471.554688 773.980469 481.832031 773.011719 C 483.132812 772.894531 498.136719 772.277344 498.015625 771.472656 C 497.898438 769.875 470.019531 767.449219 468.132812 762.917969 C 462.339844 750.054688 448.402344 748.207031 447.335938 746.351562 C 444.148438 741.34375 447.457031 730.066406 433.871094 724.8125 C 427.492188 722.328125 420.40625 726.230469 414.972656 724.113281 C 396.539062 717 390.515625 694.136719 368.191406 692.550781 C 359.453125 691.925781 350.234375 695.429688 344.09375 701.25 C 338.304688 706.753906 334.996094 718.953125 324.957031 716.621094 C 321.292969 715.792969 317.632812 709.949219 314.441406 707.996094 C 312.316406 706.683594 304.046875 707.203125 303.21875 705.144531 C 301.683594 701.675781 310.660156 695.640625 302.75 685.9375 C 302.628906 685.664062 302.277344 685.5 302.035156 685.285156 C 298.261719 682.1875 295.421875 684.800781 291.878906 683.40625 C 287.625 681.773438 284.789062 676.503906 279.828125 675.996094 C 275.339844 675.535156 271.085938 680.8125 267.308594 679.320312 C 248.761719 672.140625 242.5 651.476562 216.75 656.316406 C 207.652344 658.007812 181.074219 681.84375 180.128906 691.167969 C 179.417969 698.433594 191.230469 715.226562 185.5625 717.746094 C 180.246094 720.101562 176.226562 716.136719 170.792969 716.644531 C 168.671875 716.859375 167.371094 719.828125 165.480469 720.019531 C 164.769531 720.078125 154.613281 705.085938 150.710938 703.238281 C 139.84375 698.042969 126.140625 710.894531 121.066406 717.109375 C 118.347656 720.433594 107.359375 715.378906 104.878906 726.480469 C 104.761719 727.058594 107.59375 727.605469 107.59375 727.605469 Z M 107.59375 727.605469 " clip-rule="evenodd"/></clipPath><clipPath id="14af05a50f"><path d="M 52 672 L 498.140625 672 L 498.140625 799.554688 L 52 799.554688 Z M 52 672 " clip-rule="nonzero"/></clipPath><clipPath id="c66cd4e551"><path d="M 107.59375 727.605469 C 106.535156 732.800781 91.886719 726.835938 88.34375 728.410156 C 76.644531 733.582031 83.496094 747.011719 79.832031 748.113281 C 72.984375 750.195312 57.390625 748.503906 52.3125 754.644531 C 51.132812 756.148438 56.207031 755.425781 58.097656 755.519531 C 63.179688 755.757812 68.378906 754.253906 73.453125 755.140625 C 79.246094 756.160156 84.085938 759.863281 90.234375 759.957031 C 99.089844 760.101562 107.007812 755.566406 115.632812 757.542969 C 116.21875 757.699219 115.863281 758.160156 116.105469 758.574219 C 116.691406 759.921875 102.28125 766.5625 100.980469 772.125 C 100.035156 776.457031 110.3125 782.40625 113.5 783.769531 C 119.878906 786.574219 157.800781 791.09375 165.363281 790.964844 C 172.09375 790.84375 182.015625 784.207031 188.042969 785.601562 C 201.390625 788.703125 204.582031 793.164062 221.828125 793.4375 C 229.859375 793.566406 243.210938 783.496094 249.941406 786.136719 C 258.449219 789.414062 262.230469 796.917969 272.152344 798.644531 C 287.625 801.316406 305.699219 794.382812 321.058594 792.917969 C 328.5 792.21875 334.285156 785.96875 341.019531 785.320312 C 344.800781 784.964844 345.867188 790.441406 350.117188 790.878906 C 354.136719 791.308594 359.097656 788.347656 363.113281 789.285156 C 373.507812 791.699219 385.320312 792.027344 396.539062 789.671875 C 401.859375 788.574219 405.285156 783.957031 410.839844 782.609375 C 414.851562 781.640625 420.167969 785.367188 424.65625 785.578125 C 433.636719 786.003906 440.25 782.371094 447.101562 778.101562 C 456.433594 772.230469 471.554688 773.980469 481.832031 773.011719 C 483.132812 772.894531 498.136719 772.277344 498.015625 771.472656 C 497.898438 769.875 470.019531 767.449219 468.132812 762.917969 C 462.339844 750.054688 448.402344 748.207031 447.335938 746.351562 C 444.148438 741.34375 447.457031 730.066406 433.871094 724.8125 C 427.492188 722.328125 420.40625 726.230469 414.972656 724.113281 C 396.539062 717 390.515625 694.136719 368.191406 692.550781 C 359.453125 691.925781 350.234375 695.429688 344.09375 701.25 C 338.304688 706.753906 334.996094 718.953125 324.957031 716.621094 C 321.292969 715.792969 317.632812 709.949219 314.441406 707.996094 C 312.316406 706.683594 304.046875 707.203125 303.21875 705.144531 C 301.683594 701.675781 310.660156 695.640625 302.75 685.9375 C 302.628906 685.664062 302.277344 685.5 302.035156 685.285156 C 298.261719 682.1875 295.421875 684.800781 291.878906 683.40625 C 287.625 681.773438 284.789062 676.503906 279.828125 675.996094 C 275.339844 675.535156 271.085938 680.8125 267.308594 679.320312 C 248.761719 672.140625 242.5 651.476562 216.75 656.316406 C 207.652344 658.007812 181.074219 681.84375 180.128906 691.167969 C 179.417969 698.433594 191.230469 715.226562 185.5625 717.746094 C 180.246094 720.101562 176.226562 716.136719 170.792969 716.644531 C 168.671875 716.859375 167.371094 719.828125 165.480469 720.019531 C 164.769531 720.078125 154.613281 705.085938 150.710938 703.238281 C 139.84375 698.042969 126.140625 710.894531 121.066406 717.109375 C 118.347656 720.433594 107.359375 715.378906 104.878906 726.480469 C 104.761719 727.058594 107.59375 727.605469 107.59375 727.605469 Z M 107.59375 727.605469 " clip-rule="evenodd"/></clipPath><clipPath id="0608ba9d42"><path d="M 280 751 L 330 751 L 330 771 L 280 771 Z M 280 751 " clip-rule="nonzero"/></clipPath><clipPath id="778110191b"><path d="M 107.59375 727.605469 C 106.535156 732.800781 91.886719 726.835938 88.34375 728.410156 C 76.644531 733.582031 83.496094 747.011719 79.832031 748.113281 C 72.984375 750.195312 57.390625 748.503906 52.3125 754.644531 C 51.132812 756.148438 56.207031 755.425781 58.097656 755.519531 C 63.179688 755.757812 68.378906 754.253906 73.453125 755.140625 C 79.246094 756.160156 84.085938 759.863281 90.234375 759.957031 C 99.089844 760.101562 107.007812 755.566406 115.632812 757.542969 C 116.21875 757.699219 115.863281 758.160156 116.105469 758.574219 C 116.691406 759.921875 102.28125 766.5625 100.980469 772.125 C 100.035156 776.457031 110.3125 782.40625 113.5 783.769531 C 119.878906 786.574219 157.800781 791.09375 165.363281 790.964844 C 172.09375 790.84375 182.015625 784.207031 188.042969 785.601562 C 201.390625 788.703125 204.582031 793.164062 221.828125 793.4375 C 229.859375 793.566406 243.210938 783.496094 249.941406 786.136719 C 258.449219 789.414062 262.230469 796.917969 272.152344 798.644531 C 287.625 801.316406 305.699219 794.382812 321.058594 792.917969 C 328.5 792.21875 334.285156 785.96875 341.019531 785.320312 C 344.800781 784.964844 345.867188 790.441406 350.117188 790.878906 C 354.136719 791.308594 359.097656 788.347656 363.113281 789.285156 C 373.507812 791.699219 385.320312 792.027344 396.539062 789.671875 C 401.859375 788.574219 405.285156 783.957031 410.839844 782.609375 C 414.851562 781.640625 420.167969 785.367188 424.65625 785.578125 C 433.636719 786.003906 440.25 782.371094 447.101562 778.101562 C 456.433594 772.230469 471.554688 773.980469 481.832031 773.011719 C 483.132812 772.894531 498.136719 772.277344 498.015625 771.472656 C 497.898438 769.875 470.019531 767.449219 468.132812 762.917969 C 462.339844 750.054688 448.402344 748.207031 447.335938 746.351562 C 444.148438 741.34375 447.457031 730.066406 433.871094 724.8125 C 427.492188 722.328125 420.40625 726.230469 414.972656 724.113281 C 396.539062 717 390.515625 694.136719 368.191406 692.550781 C 359.453125 691.925781 350.234375 695.429688 344.09375 701.25 C 338.304688 706.753906 334.996094 718.953125 324.957031 716.621094 C 321.292969 715.792969 317.632812 709.949219 314.441406 707.996094 C 312.316406 706.683594 304.046875 707.203125 303.21875 705.144531 C 301.683594 701.675781 310.660156 695.640625 302.75 685.9375 C 302.628906 685.664062 302.277344 685.5 302.035156 685.285156 C 298.261719 682.1875 295.421875 684.800781 291.878906 683.40625 C 287.625 681.773438 284.789062 676.503906 279.828125 675.996094 C 275.339844 675.535156 271.085938 680.8125 267.308594 679.320312 C 248.761719 672.140625 242.5 651.476562 216.75 656.316406 C 207.652344 658.007812 181.074219 681.84375 180.128906 691.167969 C 179.417969 698.433594 191.230469 715.226562 185.5625 717.746094 C 180.246094 720.101562 176.226562 716.136719 170.792969 716.644531 C 168.671875 716.859375 167.371094 719.828125 165.480469 720.019531 C 164.769531 720.078125 154.613281 705.085938 150.710938 703.238281 C 139.84375 698.042969 126.140625 710.894531 121.066406 717.109375 C 118.347656 720.433594 107.359375 715.378906 104.878906 726.480469 C 104.761719 727.058594 107.59375 727.605469 107.59375 727.605469 Z M 107.59375 727.605469 " clip-rule="evenodd"/></clipPath></defs><g clip-path="url(#99160f9acc)"><path fill="#fdfffe" d="M 107.597656 727.605469 C 106.53125 732.800781 91.886719 726.835938 88.34375 728.410156 C 76.644531 733.582031 83.496094 747.011719 79.835938 748.113281 C 72.984375 750.195312 57.390625 748.503906 52.3125 754.644531 C 51.132812 756.148438 56.210938 755.425781 58.097656 755.519531 C 63.179688 755.757812 68.378906 754.253906 73.457031 755.140625 C 79.246094 756.160156 84.085938 759.863281 90.230469 759.957031 C 99.089844 760.101562 107.003906 755.570312 115.628906 757.542969 C 116.21875 757.699219 115.867188 758.160156 116.101562 758.574219 C 116.695312 759.921875 102.28125 766.5625 100.980469 772.125 C 100.035156 776.457031 110.3125 782.40625 113.503906 783.769531 C 119.882812 786.574219 157.800781 791.09375 165.363281 790.964844 C 172.09375 790.84375 182.019531 784.207031 188.042969 785.601562 C 201.390625 788.703125 204.582031 793.164062 221.828125 793.4375 C 229.859375 793.566406 243.210938 783.496094 249.941406 786.136719 C 258.449219 789.414062 262.230469 796.917969 272.152344 798.644531 C 287.625 801.320312 305.703125 794.382812 321.058594 792.917969 C 328.5 792.21875 334.289062 785.96875 341.019531 785.320312 C 344.800781 784.964844 345.867188 790.441406 350.117188 790.878906 C 354.136719 791.308594 359.09375 788.347656 363.113281 789.285156 C 373.507812 791.699219 385.320312 792.027344 396.542969 789.671875 C 401.859375 788.574219 405.285156 783.957031 410.835938 782.609375 C 414.851562 781.636719 420.167969 785.367188 424.65625 785.578125 C 433.636719 786.003906 440.25 782.371094 447.101562 778.101562 C 456.433594 772.230469 471.554688 773.980469 481.832031 773.011719 C 483.132812 772.894531 498.132812 772.277344 498.015625 771.472656 C 497.898438 769.875 470.019531 767.449219 468.132812 762.917969 C 462.339844 750.054688 448.402344 748.207031 447.335938 746.347656 C 444.148438 741.34375 447.457031 730.066406 433.875 724.8125 C 427.492188 722.328125 420.40625 726.230469 414.972656 724.113281 C 396.542969 717 390.519531 694.136719 368.191406 692.550781 C 359.449219 691.925781 350.234375 695.429688 344.09375 701.25 C 338.304688 706.753906 334.996094 718.953125 324.957031 716.621094 C 321.292969 715.792969 317.632812 709.949219 314.441406 707.996094 C 312.316406 706.683594 304.046875 707.203125 303.21875 705.144531 C 301.683594 701.675781 310.664062 695.640625 302.75 685.9375 C 302.628906 685.664062 302.273438 685.5 302.039062 685.285156 C 298.257812 682.1875 295.421875 684.800781 291.878906 683.40625 C 287.625 681.773438 284.792969 676.503906 279.832031 675.996094 C 275.339844 675.535156 271.089844 680.8125 267.308594 679.320312 C 248.761719 672.140625 242.503906 651.476562 216.75 656.316406 C 207.652344 658.007812 181.074219 681.84375 180.128906 691.167969 C 179.417969 698.433594 191.234375 715.226562 185.5625 717.746094 C 180.246094 720.101562 176.230469 716.136719 170.796875 716.644531 C 168.671875 716.859375 167.371094 719.828125 165.480469 720.019531 C 164.773438 720.078125 154.613281 705.085938 150.714844 703.238281 C 139.847656 698.042969 126.144531 710.894531 121.0625 717.109375 C 118.34375 720.433594 107.359375 715.378906 104.878906 726.480469 C 104.761719 727.058594 107.597656 727.605469 107.597656 727.605469 Z M 107.597656 727.605469 " fill-opacity="1" fill-rule="evenodd"/></g><g clip-path="url(#168873d082)"><g clip-path="url(#643d8da172)"><path fill="#d8e8f5" d="M 171.269531 686.601562 C 165.480469 692.613281 181.898438 703.414062 186.507812 704.113281 C 189.695312 704.597656 192.648438 701.757812 195.25 701.511719 C 196.195312 701.417969 192.53125 707.0625 192.648438 708.515625 C 192.765625 710.160156 196.3125 712.339844 197.730469 712.660156 C 201.273438 713.5 206.234375 714.871094 210.015625 715.046875 C 210.371094 715.074219 214.503906 714.28125 214.621094 714.964844 C 214.976562 719.097656 203.753906 721.523438 201.390625 721.558594 C 192.058594 721.722656 156.265625 709.378906 167.015625 696.375 C 168.316406 694.71875 171.269531 686.601562 171.269531 686.601562 Z M 171.269531 686.601562 " fill-opacity="1" fill-rule="evenodd"/></g></g><g clip-path="url(#14af05a50f)"><g clip-path="url(#c66cd4e551)"><path fill="#d8e8f5" d="M 298.257812 677.191406 C 287.625 690.007812 290.34375 699.816406 272.035156 710.574219 C 266.71875 713.710938 258.804688 717.59375 252.421875 717.769531 C 251.125 717.804688 242.503906 715.746094 241.4375 717.046875 C 240.847656 717.734375 252.304688 722.753906 253.367188 723.023438 C 258.210938 724.351562 286.210938 720.632812 285.972656 730.585938 C 285.855469 741.09375 273.808594 741.214844 267.542969 745.851562 C 264.710938 747.972656 266.246094 752.242188 262.703125 754.847656 C 257.269531 758.847656 244.390625 757.78125 238.011719 759.699219 C 230.332031 762.007812 227.378906 768.917969 221.472656 772.644531 C 218.753906 774.324219 216.039062 767.933594 215.566406 766.445312 C 212.496094 757.746094 210.605469 747 197.492188 748.242188 C 194.1875 748.5625 189.105469 755.261719 188.515625 755.140625 C 182.609375 753.78125 174.457031 746.207031 167.960938 751.058594 C 161.226562 756.042969 170.085938 763.554688 159.691406 765.710938 C 156.148438 766.457031 140.789062 764.515625 138.664062 760.597656 C 135.355469 754.527344 145.753906 750.207031 143.625 745.191406 C 141.027344 739.425781 132.402344 750.871094 128.859375 751.214844 C 123.898438 751.675781 121.652344 740.800781 119.054688 737.910156 C 115.039062 733.144531 108.1875 738.351562 106.0625 734.882812 C 102.042969 728.386719 110.074219 718.269531 100.507812 713.367188 C 84.679688 705.296875 39.554688 736.457031 46.640625 756.527344 C 56.089844 782.929688 105.117188 794.574219 128.269531 801.414062 C 137.367188 804.074219 145.988281 809.425781 155.085938 811.53125 C 174.105469 815.945312 198.792969 809.578125 218.640625 809.910156 C 249.234375 810.417969 280.65625 812.902344 311.253906 809.992188 C 323.421875 808.84375 335.46875 801.09375 347.28125 800.878906 C 367.363281 800.515625 386.855469 802.488281 406.9375 804.097656 C 437.417969 806.5625 464.941406 801.945312 492.9375 790.242188 C 498.84375 787.757812 519.28125 782.277344 519.398438 773.140625 C 519.515625 765.332031 511.011719 760.324219 505.695312 755.945312 C 491.992188 744.609375 480.414062 733.425781 459.863281 744.65625 C 449.230469 750.457031 443.324219 774.515625 428.910156 762.539062 C 426.785156 760.761719 430.683594 751.542969 429.617188 751.4375 C 423.832031 750.835938 413.792969 756.265625 411.78125 747.082031 C 409.890625 738.03125 428.320312 716.078125 411.898438 710.800781 C 390.636719 703.960938 400.441406 723.972656 397.722656 729.570312 C 395.949219 733.355469 390.28125 731.628906 387.445312 733.402344 C 384.964844 734.941406 389.101562 741.285156 387.800781 744.042969 C 385.792969 748.101562 378.230469 750.726562 374.335938 752.433594 C 357.796875 759.769531 350.828125 749.082031 343.382812 737.226562 C 340.550781 732.621094 331.453125 735.011719 330.863281 728.101562 C 329.796875 716.515625 334.054688 707.605469 326.136719 696.894531 C 319.757812 688.171875 306.171875 682.800781 301.800781 672.882812 C 301.445312 671.867188 298.257812 677.191406 298.257812 677.191406 Z M 298.257812 677.191406 " fill-opacity="1" fill-rule="evenodd"/></g></g><g clip-path="url(#0608ba9d42)"><g clip-path="url(#778110191b)"><path fill="#fdfffe" d="M 317.984375 754.042969 C 311.726562 745.792969 296.132812 757.992188 290.582031 759.675781 C 288.808594 760.195312 278.53125 757.261719 280.183594 762.796875 C 281.71875 768.03125 314.796875 771.378906 320.585938 769.628906 C 328.972656 767.082031 332.871094 760.941406 325.195312 754.609375 C 324.128906 753.6875 317.984375 754.042969 317.984375 754.042969 Z M 317.984375 754.042969 " fill-opacity="1" fill-rule="evenodd"/></g></g></svg>