<svg xmlns="http://www.w3.org/2000/svg" xmlns:xlink="http://www.w3.org/1999/xlink" width="1080" viewBox="0 0 810 404.99999" height="540" preserveAspectRatio="none" version="1.0"><defs><clipPath id="148f857f95"><path d="M 533 71 L 810 71 L 810 317 L 533 317 Z M 533 71 " clip-rule="nonzero"/></clipPath><clipPath id="8d73180437"><path d="M 814.898438 53.851562 C 814.898438 53.851562 790.886719 46.488281 775.511719 57.011719 C 771.203125 59.957031 765.375 62.300781 762.515625 66.882812 C 760.34375 70.367188 760.730469 74.824219 758.628906 78.269531 C 757.683594 79.824219 751.824219 83.035156 752.003906 84.605469 C 752.09375 85.324219 758.835938 81.144531 758.988281 82.820312 C 759.660156 90.554688 745.105469 93.773438 745.171875 99.035156 C 745.179688 99.332031 749.007812 97.457031 749.238281 97.335938 C 751.625 96.078125 757.019531 91.234375 759.796875 91.875 C 761.484375 92.261719 766.230469 108.628906 765.488281 110.699219 C 763.851562 115.246094 742.042969 108.667969 734.625 116.171875 C 731.234375 119.601562 730.113281 124.792969 726.695312 128 C 723.296875 131.1875 717.796875 130.921875 714.085938 133.941406 C 709.910156 137.339844 711.535156 142.285156 709.042969 146.195312 C 706.949219 149.480469 703.007812 151.453125 700.78125 154.796875 C 698.359375 158.441406 699.84375 171.296875 697.667969 172.875 C 696.765625 173.527344 695.210938 172.980469 694.269531 172.722656 C 689.625 171.457031 685.910156 168.234375 681.203125 167.101562 C 676.289062 165.921875 633.648438 161.253906 633.476562 161.308594 C 615.214844 167.152344 608.761719 199.644531 599.59375 206.078125 C 590.105469 212.742188 581.492188 220.179688 572.054688 226.929688 C 570.980469 227.691406 557.535156 236.332031 557.910156 236.824219 C 558.375 237.425781 559.714844 236.996094 560.257812 236.847656 C 575.933594 232.539062 587.835938 221.226562 602.289062 214.414062 C 602.925781 214.117188 606.5625 211.773438 607.207031 212.320312 C 607.71875 212.757812 602.550781 218.65625 602.167969 219.203125 C 597.191406 226.378906 593.710938 230.894531 585.703125 235.050781 C 585.109375 235.359375 576.648438 239.675781 576.929688 240.058594 C 578.542969 242.242188 597.160156 231.851562 598.714844 235.160156 C 598.992188 235.742188 593.148438 239.835938 592.664062 240.234375 C 589.34375 243 585.113281 249.605469 580.785156 250.460938 C 555.046875 255.550781 536.601562 270.511719 526.191406 295.804688 C 525.613281 297.210938 521.027344 316.90625 521.027344 316.90625 L 818.257812 313.074219 Z M 814.898438 53.851562 " clip-rule="evenodd"/></clipPath><clipPath id="150f122e3e"><path d="M 237.519531 262 L 583.242188 262 L 583.242188 325.539062 L 237.519531 325.539062 Z M 237.519531 262 " clip-rule="nonzero"/></clipPath><clipPath id="1b9c806566"><path d="M 579.800781 253.46875 C 580.625 255.476562 576.394531 250.515625 574.285156 250.003906 C 574.023438 249.941406 573.753906 249.886719 573.488281 249.84375 C 568.644531 248.941406 563.355469 249.621094 559.0625 252.132812 C 554.933594 254.546875 552.253906 259.871094 547.707031 261.441406 C 540.546875 263.90625 531.730469 257.824219 524.144531 258.386719 C 516.398438 258.96875 516.222656 264.410156 510.824219 266.984375 C 506.734375 268.929688 501.738281 267.621094 497.535156 269.582031 C 495.679688 270.445312 492.976562 273.921875 490.902344 273.765625 C 487.804688 273.539062 484.835938 266.480469 481.28125 265.25 C 477.261719 263.867188 458.847656 265.125 453.050781 262.199219 C 447.382812 259.335938 448.90625 252.003906 439.546875 251.972656 C 433.199219 251.941406 430.996094 256.941406 425.785156 258.304688 C 419.433594 259.964844 410.492188 258.257812 403.464844 260.566406 C 399.257812 261.953125 395.886719 267.371094 390.730469 266.144531 C 378.707031 263.273438 377.410156 244.824219 364.675781 244.160156 C 355.226562 243.667969 354.121094 251.535156 347.371094 254.121094 C 344.398438 255.261719 339.847656 251.589844 336 252.644531 C 332.34375 253.652344 330.21875 257.238281 327.28125 258.3125 C 319.890625 261.007812 310.8125 259.804688 304.140625 262.527344 C 301.277344 263.695312 299.285156 267.007812 296.441406 267.796875 C 296.347656 267.824219 296.253906 267.847656 296.160156 267.859375 C 277.175781 270.15625 257.355469 237.875 238.992188 257.878906 C 232.304688 265.164062 257.503906 325.433594 257.503906 325.433594 L 583.015625 316.777344 Z M 579.800781 253.46875 " clip-rule="evenodd"/></clipPath><clipPath id="f141ebc4d4"><path d="M 2.25 75 L 229 75 L 229 326 L 2.25 326 Z M 2.25 75 " clip-rule="nonzero"/></clipPath><clipPath id="9cd0ddf402"><path d="M 2.625 79.90625 C 2.863281 80.253906 4.515625 78.441406 4.648438 78.304688 C 10.910156 71.710938 22.066406 64.253906 31.464844 66.929688 C 37.425781 68.632812 36.519531 73.097656 40.019531 76.332031 C 42.636719 78.753906 46.40625 78.050781 49.117188 81.644531 C 50.484375 83.457031 49.902344 86.703125 51.386719 88.171875 C 54.097656 90.859375 58.625 90.285156 60.804688 94.214844 C 65.390625 102.488281 60.183594 107.507812 69.667969 108.835938 C 73.277344 109.335938 77.050781 105.363281 80.226562 104.148438 C 85.261719 102.21875 91.011719 104.566406 95.671875 102.664062 C 107.519531 97.839844 110.597656 76.457031 130.804688 92.609375 C 138.1875 98.515625 138.132812 106.871094 142.207031 114.441406 C 143.863281 117.523438 148.367188 118.894531 150.492188 121.957031 C 154.910156 128.34375 156.882812 136.5625 161.4375 142.914062 C 167.886719 151.917969 181.429688 159.695312 189.796875 167.042969 C 193.214844 170.039062 216.316406 186.863281 217.179688 189.472656 C 217.195312 189.535156 213.394531 187.996094 213.085938 187.84375 C 209.539062 186.050781 206 184.261719 202.453125 182.46875 C 188.886719 175.609375 175.105469 165.261719 160.21875 161.535156 C 159.445312 161.34375 155.460938 160.691406 155.082031 162.066406 C 155.03125 162.253906 159.183594 163.835938 159.464844 163.984375 C 163.222656 165.949219 166.84375 168.632812 168.710938 172.5625 C 170.570312 176.476562 168.121094 182.277344 170.429688 185.5 C 173.476562 189.761719 181.078125 187.914062 182.550781 194.566406 C 183.6875 199.722656 177.722656 205.066406 180.777344 209.507812 C 183.875 214.023438 205.019531 228.398438 205.15625 231.921875 C 205.234375 233.804688 201.820312 230.152344 200.195312 229.183594 C 197.351562 227.476562 189.996094 222.152344 186.496094 223.847656 C 183.546875 225.265625 194.890625 236.785156 196.773438 239.324219 C 200.726562 244.636719 220.144531 243.132812 228.382812 247.609375 C 232.398438 249.789062 239.359375 274.265625 258.269531 286.015625 C 272.417969 294.804688 297.480469 289.957031 309.976562 298.78125 C 328.554688 311.890625 338.972656 323.539062 338.972656 323.539062 L 3.972656 325.726562 Z M 2.625 79.90625 " clip-rule="evenodd"/></clipPath><clipPath id="c096c5bb79"><path d="M 0 97 L 307 97 L 307 326.644531 L 0 326.644531 Z M 0 97 " clip-rule="nonzero"/></clipPath><clipPath id="562943dff0"><path d="M 338.144531 323.675781 C 338.144531 323.675781 322.171875 300.117188 320.515625 299.332031 C 317.410156 297.867188 312.292969 297.707031 309.71875 295.578125 C 303.222656 290.207031 306.839844 281.117188 295.953125 277.488281 C 283.058594 273.1875 265.089844 287.421875 254.296875 278.007812 C 251.785156 275.8125 251.386719 269.371094 249.15625 266.460938 C 246.183594 262.566406 241.988281 262.402344 238.480469 259.816406 C 231.558594 254.707031 230.304688 245.851562 220.652344 241.75 C 197.152344 231.773438 181.144531 258.078125 177.410156 258.140625 C 167.296875 258.304688 162.867188 234.054688 157.539062 227.683594 C 150.335938 219.074219 138.3125 227.539062 131.765625 221.207031 C 126.859375 216.472656 130.738281 205.355469 128.542969 199.253906 C 127.328125 195.875 122.546875 193.796875 121.875 190.945312 C 120.28125 184.25 126.085938 176.859375 120.546875 170.585938 C 115.660156 165.042969 106.265625 166.371094 101.757812 160.851562 C 98.046875 156.296875 103.730469 148.605469 97.84375 144.429688 C 89.527344 138.519531 74.117188 138.574219 65.375 143.351562 C 63.359375 144.449219 61.800781 147.90625 59.796875 148.472656 C 55.132812 149.785156 50.355469 148.011719 45.765625 150.96875 C 44.011719 152.089844 41.601562 158.910156 41.0625 159.085938 C 40.214844 159.371094 36.570312 155.488281 35.878906 154.992188 C 33.28125 153.117188 29.257812 153.046875 26.933594 151.175781 C 26.160156 150.558594 27.445312 149.148438 27.78125 148.679688 C 31.636719 143.316406 36.613281 137.832031 38.179688 131.238281 C 39.375 126.21875 33.601562 125.574219 33.289062 121.289062 C 32.105469 105.347656 1.785156 75.945312 1.785156 75.945312 L 0.0195312 325.507812 C 112.996094 326.136719 226.03125 326.988281 338.144531 323.675781 Z M 338.144531 323.675781 " clip-rule="evenodd"/></clipPath><clipPath id="dc179797ff"><path d="M 592 214 L 810 214 L 810 318.90625 L 592 318.90625 Z M 592 214 " clip-rule="nonzero"/></clipPath><clipPath id="540dd9c82a"><path d="M 516.484375 318.449219 C 516.484375 318.449219 520.050781 309.699219 520.199219 308.957031 C 520.503906 307.449219 521.304688 306.042969 522.222656 304.828125 C 525.292969 300.742188 529.886719 298.863281 534.90625 298.609375 C 537.734375 298.460938 540.953125 299.890625 543.65625 299.464844 C 548.757812 298.664062 550.457031 290.863281 554.660156 288.96875 C 557.9375 287.488281 562.726562 288.441406 565.574219 286.25 C 568.425781 284.058594 569.898438 280.832031 573.324219 279.246094 C 584.832031 273.910156 587.503906 280.355469 596.855469 271.15625 C 600.261719 267.800781 599.054688 261.152344 601.722656 257.058594 C 606.410156 249.871094 614.675781 250.347656 620.691406 245.582031 C 624.898438 242.242188 625.601562 237.324219 631.484375 235.332031 C 646.851562 230.125 653.078125 243.988281 659.992188 243.042969 C 662.726562 242.671875 665.503906 239.269531 667.949219 238.003906 C 670.601562 236.632812 673.714844 237.34375 676.039062 235.234375 C 683.722656 228.261719 677.027344 219.992188 681.484375 211.519531 C 686.621094 201.738281 696.332031 201.722656 703.472656 195.351562 C 704.207031 194.699219 702.570312 188.40625 703.460938 186.515625 C 705.371094 182.464844 710.042969 181.453125 712.21875 177.808594 C 719.433594 165.769531 713.113281 157.6875 732.207031 150.425781 C 741.261719 146.980469 756.390625 146.828125 761.117188 157.335938 C 762.621094 160.679688 761.582031 167.195312 763.707031 169.804688 C 765.5625 172.078125 770.832031 170.417969 773.4375 171.785156 C 777.222656 173.769531 777.828125 182.785156 783.820312 180.371094 C 785.992188 179.496094 783.402344 163.113281 784.914062 158.339844 C 788.753906 146.214844 792.933594 133.199219 803.25 125.027344 C 804.570312 123.980469 815.902344 118.71875 815.902344 118.71875 L 817.914062 312.382812 Z M 516.484375 318.449219 " clip-rule="evenodd"/></clipPath><clipPath id="19ff78d378"><path d="M 0 244 L 810 244 L 810 405 L 0 405 Z M 0 244 " clip-rule="nonzero"/></clipPath><clipPath id="a3caeac555"><path d="M -5.945312 241.753906 L 825.679688 256.273438 L 822.734375 424.996094 L -8.890625 410.480469 Z M -5.945312 241.753906 " clip-rule="nonzero"/></clipPath><clipPath id="51f6885a5d"><path d="M -5.945312 241.753906 L 825.679688 256.273438 L 822.734375 424.996094 L -8.890625 410.480469 Z M -5.945312 241.753906 " clip-rule="nonzero"/></clipPath><clipPath id="292b64753f"><path d="M 0 253 L 810 253 L 810 405 L 0 405 Z M 0 253 " clip-rule="nonzero"/></clipPath><clipPath id="00089d67c8"><path d="M -5.945312 241.753906 L 825.679688 256.273438 L 822.734375 424.996094 L -8.890625 410.480469 Z M -5.945312 241.753906 " clip-rule="nonzero"/></clipPath><clipPath id="a542d9bc7b"><path d="M -5.945312 241.753906 L 825.679688 256.273438 L 822.734375 424.996094 L -8.890625 410.480469 Z M -5.945312 241.753906 " clip-rule="nonzero"/></clipPath><clipPath id="fc79990de8"><path d="M -6.804688 241.660156 L 826.035156 256.199219 L 823.164062 420.617188 L -9.675781 406.078125 Z M -6.804688 241.660156 " clip-rule="nonzero"/></clipPath><clipPath id="70a90797e8"><path d="M -6.621094 280.339844 C -4.910156 274.664062 1.429688 281.136719 4.550781 280.601562 C 10.699219 279.546875 19.785156 257.882812 37.316406 257.375 C 40.113281 257.292969 53.765625 263.261719 54.308594 262.96875 C 65.269531 257.054688 59.25 245.007812 89.363281 244.125 C 101.839844 243.761719 105.710938 261.714844 113.328125 262.882812 C 126.085938 264.824219 177.042969 289.179688 177.585938 289.09375 C 182.324219 288.261719 185.011719 282.191406 190.714844 282.023438 C 195.335938 281.886719 214.378906 293.433594 216.339844 291.972656 C 232.671875 279.960938 235.9375 296.054688 246.613281 294.210938 C 256.316406 292.53125 262.414062 281.953125 278.003906 281.859375 C 304.988281 281.707031 310.890625 300.621094 314.429688 301.144531 C 329.4375 303.4375 342.171875 300.609375 357.484375 297.960938 C 360.503906 297.457031 367.617188 290.226562 370.765625 288.230469 C 382.402344 280.640625 426.070312 260.632812 438.28125 263.242188 C 456.804688 267.179688 460.882812 280.007812 463.425781 294.585938 C 463.625 295.472656 478.046875 294.550781 480.074219 295.4375 C 497.355469 303.089844 491.710938 318.472656 516.832031 314.117188 C 521.789062 313.277344 529.257812 304.445312 533.929688 301.601562 C 542.511719 296.300781 557.78125 295.867188 565.226562 294.601562 C 569.96875 293.769531 586.5625 273.011719 605.648438 275.902344 C 623.121094 278.550781 639.421875 299.507812 645.527344 300.433594 C 656.359375 302.070312 667.398438 303.75 678.332031 305.421875 C 685.734375 306.53125 695.703125 314.144531 703.039062 312.863281 C 718.78125 310.148438 734.574219 298.375 751.714844 295.417969 C 763.683594 293.347656 782.167969 299.753906 787.453125 298.824219 C 788.207031 298.699219 790.035156 292.527344 791.550781 291.726562 C 801.425781 286.414062 823.636719 295.253906 823.636719 295.253906 L 822.964844 407.585938 L -7.3125 406.035156 Z M -6.621094 280.339844 " clip-rule="evenodd"/></clipPath><clipPath id="44744fcf51"><path d="M 0 257 L 301 257 L 301 405 L 0 405 Z M 0 257 " clip-rule="nonzero"/></clipPath><clipPath id="da8a0a5c31"><path d="M -5.945312 241.753906 L 825.679688 256.273438 L 822.734375 424.996094 L -8.890625 410.480469 Z M -5.945312 241.753906 " clip-rule="nonzero"/></clipPath><clipPath id="6cf5e53b3e"><path d="M -5.945312 241.753906 L 825.679688 256.273438 L 822.734375 424.996094 L -8.890625 410.480469 Z M -5.945312 241.753906 " clip-rule="nonzero"/></clipPath><clipPath id="ce94b3e9bf"><path d="M 0 269 L 301 269 L 301 405 L 0 405 Z M 0 269 " clip-rule="nonzero"/></clipPath><clipPath id="61e0b44010"><path d="M -5.945312 241.753906 L 825.679688 256.273438 L 822.734375 424.996094 L -8.890625 410.480469 Z M -5.945312 241.753906 " clip-rule="nonzero"/></clipPath><clipPath id="ab8679e7cd"><path d="M -5.945312 241.753906 L 825.679688 256.273438 L 822.734375 424.996094 L -8.890625 410.480469 Z M -5.945312 241.753906 " clip-rule="nonzero"/></clipPath><clipPath id="778722c977"><path d="M -7.03125 254.554688 L 303.535156 259.976562 L 300.890625 411.5 L -9.675781 406.078125 Z M -7.03125 254.554688 " clip-rule="nonzero"/></clipPath><clipPath id="cb852e767c"><path d="M -8.8125 406.007812 L -7.089844 307.28125 C -7.089844 307.28125 10.972656 306.953125 15.457031 308.835938 C 22.394531 311.71875 40.488281 322.164062 43.195312 320.972656 C 44.820312 320.207031 46.921875 316.683594 48.449219 315.390625 C 54.671875 309.972656 72.949219 310.042969 72.949219 310.042969 C 72.949219 310.042969 73.050781 304.1875 82.546875 289.519531 C 89.394531 278.921875 107.800781 283.992188 107.800781 283.992188 C 107.800781 283.992188 118.660156 271.15625 122.46875 268.75 C 131.597656 262.996094 146.703125 259.832031 157.375 258.167969 C 179.042969 254.785156 202.121094 269.160156 216.699219 283.605469 C 220.1875 287.039062 222.910156 297.214844 225.242188 299.136719 C 228.105469 301.550781 238.683594 298.867188 242.761719 299.390625 C 253.269531 300.765625 268.335938 306.09375 277.042969 312.046875 C 288.621094 319.957031 291.851562 338.332031 292.582031 351.824219 C 292.984375 359.550781 290.707031 366.90625 290.707031 366.90625 C 290.707031 366.90625 301.5 376.769531 300.367188 392.347656 C 298.78125 415.386719 269.804688 406.667969 269.804688 406.667969 Z M -8.8125 406.007812 " clip-rule="evenodd"/></clipPath><clipPath id="447da07e04"><path d="M 269 284 L 810 284 L 810 405 L 269 405 Z M 269 284 " clip-rule="nonzero"/></clipPath><clipPath id="d7127dde11"><path d="M -5.945312 241.753906 L 825.679688 256.273438 L 822.734375 424.996094 L -8.890625 410.480469 Z M -5.945312 241.753906 " clip-rule="nonzero"/></clipPath><clipPath id="11bdf317f9"><path d="M -5.945312 241.753906 L 825.679688 256.273438 L 822.734375 424.996094 L -8.890625 410.480469 Z M -5.945312 241.753906 " clip-rule="nonzero"/></clipPath><clipPath id="ef9b4b38fe"><path d="M 269 310 L 810 310 L 810 405 L 269 405 Z M 269 310 " clip-rule="nonzero"/></clipPath><clipPath id="ec1a81ccd4"><path d="M -5.945312 241.753906 L 825.679688 256.273438 L 822.734375 424.996094 L -8.890625 410.480469 Z M -5.945312 241.753906 " clip-rule="nonzero"/></clipPath><clipPath id="c832953e1f"><path d="M -5.945312 241.753906 L 825.679688 256.273438 L 822.734375 424.996094 L -8.890625 410.480469 Z M -5.945312 241.753906 " clip-rule="nonzero"/></clipPath><clipPath id="bd8055cb09"><path d="M 272.09375 275.554688 L 825.523438 285.214844 L 823.21875 417.394531 L 269.785156 407.734375 Z M 272.09375 275.554688 " clip-rule="nonzero"/></clipPath><clipPath id="4bca28bd24"><path d="M 823.269531 346.703125 C 823.269531 346.703125 808.738281 329.21875 787.492188 339.757812 C 786.945312 340.03125 786.785156 337.046875 786.582031 336.519531 C 782.78125 326.25 776.65625 319.855469 769.820312 311.351562 C 766.03125 306.621094 759.113281 302.714844 754.058594 302.886719 C 752.765625 302.917969 748.347656 297.605469 747.707031 296.957031 C 742.738281 292.304688 736.230469 289.546875 729.820312 287.335938 C 709.519531 280.277344 689.742188 286.292969 670.894531 294.5625 C 654.644531 301.664062 648.4375 318.519531 643.984375 333.40625 C 642.847656 337.042969 633.515625 335.976562 630.585938 337.515625 C 625.8125 340.117188 624.441406 350.832031 620.867188 352.125 C 618.160156 353.164062 614.433594 351.175781 611.519531 352.027344 C 609.464844 352.59375 601.621094 358.765625 600.65625 358.503906 C 583.757812 353.445312 576.328125 329.839844 555.820312 334.652344 C 545.886719 336.972656 513.679688 353.167969 511.527344 353.238281 C 509.808594 353.292969 506.015625 361.28125 504.410156 360.820312 C 497.992188 358.914062 492.6875 361.121094 486.476562 359.777344 C 476.839844 357.707031 469.292969 346.339844 459.777344 343.5 C 454.429688 341.910156 454.015625 347.269531 447.953125 343.476562 C 430.832031 332.886719 422.742188 316.128906 400.15625 316.863281 C 388.210938 317.246094 373.613281 322.269531 363.71875 328.664062 C 361 330.433594 360.914062 335.496094 357.886719 336.613281 C 352.148438 338.738281 343.820312 335.464844 337.453125 337.277344 C 326.109375 340.519531 323.058594 354.699219 316.457031 357.144531 C 314.515625 357.882812 310.128906 356.539062 307.546875 356.621094 C 298.730469 356.910156 290.101562 364.710938 283.882812 370.054688 C 271.769531 380.386719 269.804688 406.667969 269.804688 406.667969 L 822.953125 408.113281 Z M 823.269531 346.703125 " clip-rule="evenodd"/></clipPath></defs><path fill="#cee6f8" d="M 814.898438 53.851562 C 814.898438 53.851562 790.886719 46.488281 775.511719 57.011719 C 771.203125 59.957031 765.375 62.300781 762.515625 66.882812 C 760.34375 70.367188 760.730469 74.824219 758.628906 78.273438 C 757.683594 79.824219 751.824219 83.035156 752.003906 84.605469 C 752.09375 85.324219 758.835938 81.144531 758.984375 82.820312 C 759.660156 90.554688 745.105469 93.773438 745.171875 99.035156 C 745.179688 99.332031 749.007812 97.457031 749.238281 97.335938 C 751.625 96.078125 757.019531 91.234375 759.796875 91.875 C 761.484375 92.261719 766.230469 108.628906 765.488281 110.699219 C 763.851562 115.246094 742.042969 108.667969 734.625 116.171875 C 731.234375 119.601562 730.113281 124.792969 726.695312 128 C 723.296875 131.1875 717.796875 130.921875 714.085938 133.941406 C 709.910156 137.339844 711.535156 142.285156 709.042969 146.195312 C 706.949219 149.480469 703.007812 151.453125 700.78125 154.796875 C 698.359375 158.441406 699.84375 171.296875 697.667969 172.875 C 696.765625 173.527344 695.210938 172.980469 694.269531 172.726562 C 689.625 171.457031 685.910156 168.234375 681.203125 167.101562 C 676.289062 165.921875 633.648438 161.253906 633.476562 161.308594 C 615.214844 167.152344 608.761719 199.644531 599.59375 206.078125 C 590.105469 212.742188 581.492188 220.179688 572.054688 226.929688 C 570.980469 227.691406 557.535156 236.332031 557.910156 236.824219 C 558.371094 237.425781 559.714844 236.996094 560.257812 236.847656 C 575.933594 232.539062 587.835938 221.226562 602.289062 214.414062 C 602.925781 214.117188 606.5625 211.773438 607.203125 212.320312 C 607.71875 212.757812 602.550781 218.65625 602.167969 219.203125 C 597.191406 226.378906 593.710938 230.894531 585.703125 235.050781 C 585.109375 235.359375 576.648438 239.675781 576.929688 240.058594 C 578.542969 242.242188 597.160156 231.851562 598.714844 235.160156 C 598.992188 235.742188 593.148438 239.835938 592.664062 240.234375 C 589.34375 243 585.113281 249.605469 580.785156 250.460938 C 555.046875 255.554688 536.601562 270.511719 526.191406 295.804688 C 525.613281 297.210938 521.027344 316.90625 521.027344 316.90625 L 818.257812 313.074219 Z M 814.898438 53.851562 " fill-opacity="1" fill-rule="evenodd"/><g clip-path="url(#148f857f95)"><g clip-path="url(#8d73180437)"><path fill="#8bcdef" d="M 814.726562 72.675781 C 815.285156 73.679688 812.644531 71.570312 811.5 71.484375 C 809.023438 71.296875 806.703125 71.898438 804.433594 72.855469 C 803.980469 73.042969 787.859375 84.824219 787.261719 85.386719 C 785.347656 87.1875 783.832031 89.195312 783.269531 91.824219 C 782.304688 96.316406 785.617188 99.636719 785.101562 103.804688 C 784.683594 107.230469 781.152344 109.515625 780.960938 113.210938 C 780.832031 115.613281 783.558594 119.007812 782.613281 121.171875 C 780.070312 126.992188 771.796875 129.203125 772.847656 137.039062 C 773.632812 142.898438 790.195312 143.726562 790.464844 146.527344 C 790.53125 147.21875 782.253906 147.082031 781.539062 147.160156 C 778.601562 147.5 769.808594 151.394531 767.285156 150.214844 C 766 149.617188 766.585938 144.53125 763.476562 143.207031 C 762.253906 142.6875 753.40625 142.300781 753.246094 141.660156 C 752.839844 139.984375 760.164062 138.535156 760.070312 135.96875 C 759.832031 129.1875 738.910156 130.984375 734.96875 133.191406 C 727.085938 137.597656 742.550781 139.289062 741.902344 141.714844 C 741.195312 144.382812 732.644531 146.90625 730.503906 148.679688 C 727.113281 151.480469 717.300781 166.601562 714.941406 170.800781 C 711.699219 176.589844 712.332031 197.839844 710.785156 199.292969 C 701.5625 207.960938 687.9375 183.53125 675.925781 187.859375 C 672.605469 189.058594 653.40625 196.65625 655.359375 200.207031 C 656.390625 202.09375 669.660156 204.464844 668.972656 206.777344 C 668.9375 206.886719 657.582031 206.207031 656.582031 206.316406 C 652.351562 206.78125 647.980469 207.6875 644.410156 210.109375 C 644.136719 210.292969 643.21875 211.132812 642.808594 210.839844 C 642.175781 210.378906 650.574219 203.105469 643.738281 202.890625 C 631.257812 202.496094 629.0625 213.875 624.492188 222.242188 C 623.285156 224.441406 620.886719 225.929688 620.0625 228.335938 C 619.476562 230.03125 621.601562 235.640625 621.242188 235.941406 C 615.804688 240.46875 610.042969 246.460938 604.421875 250.546875 C 601.824219 252.429688 598.234375 252.574219 595.46875 254.636719 C 593.332031 256.226562 592.011719 258.792969 589.546875 259.980469 C 583.226562 263.019531 575.128906 258.378906 568.359375 260.941406 C 562.8125 263.042969 563.078125 268.5 558.945312 271.886719 C 555.214844 274.957031 550.414062 276.386719 546.707031 279.625 C 534.917969 289.941406 529.871094 308.347656 536.628906 322.722656 C 540.378906 330.691406 754.878906 372.746094 829.929688 301.886719 C 890.289062 244.921875 814.726562 72.675781 814.726562 72.675781 Z M 814.726562 72.675781 " fill-opacity="0.99" fill-rule="evenodd"/></g></g><path fill="#cee6f8" d="M 579.800781 253.46875 C 580.625 255.476562 576.394531 250.515625 574.285156 250.003906 C 574.023438 249.941406 573.753906 249.886719 573.488281 249.84375 C 568.644531 248.941406 563.355469 249.621094 559.0625 252.132812 C 554.933594 254.546875 552.253906 259.871094 547.707031 261.441406 C 540.546875 263.90625 531.730469 257.824219 524.144531 258.386719 C 516.398438 258.96875 516.222656 264.410156 510.824219 266.984375 C 506.734375 268.929688 501.738281 267.621094 497.535156 269.582031 C 495.679688 270.445312 492.976562 273.921875 490.902344 273.765625 C 487.804688 273.539062 484.835938 266.480469 481.28125 265.25 C 477.261719 263.867188 458.847656 265.128906 453.050781 262.199219 C 447.382812 259.335938 448.90625 252.003906 439.546875 251.972656 C 433.199219 251.945312 430.996094 256.941406 425.785156 258.304688 C 419.433594 259.964844 410.492188 258.257812 403.464844 260.566406 C 399.257812 261.953125 395.886719 267.371094 390.730469 266.144531 C 378.707031 263.277344 377.410156 244.824219 364.675781 244.160156 C 355.226562 243.667969 354.121094 251.535156 347.371094 254.121094 C 344.398438 255.261719 339.847656 251.589844 336 252.644531 C 332.34375 253.652344 330.21875 257.238281 327.28125 258.3125 C 319.890625 261.007812 310.8125 259.804688 304.140625 262.527344 C 301.277344 263.695312 299.285156 267.007812 296.441406 267.796875 C 296.347656 267.824219 296.253906 267.847656 296.160156 267.859375 C 277.175781 270.15625 257.355469 237.875 238.992188 257.878906 C 232.304688 265.167969 257.503906 325.433594 257.503906 325.433594 L 583.015625 316.777344 Z M 579.800781 253.46875 " fill-opacity="0.99" fill-rule="evenodd"/><g clip-path="url(#150f122e3e)"><g clip-path="url(#1b9c806566)"><path fill="#8bcdef" d="M 549.292969 280.335938 C 549.355469 282.289062 545.992188 278.210938 544.191406 277.449219 C 541.007812 276.105469 537.691406 275.148438 534.28125 274.570312 C 525.644531 273.097656 523.605469 277.757812 516.957031 279.195312 C 514.074219 279.820312 510.605469 278.238281 507.5625 278.554688 C 498.378906 279.523438 497.492188 289.277344 488.902344 291.710938 C 486.28125 292.457031 479.035156 283.894531 474.90625 283.453125 C 465.800781 282.480469 457.914062 289.265625 445.5 284.347656 C 443.597656 283.59375 444.675781 277.609375 442.070312 275.988281 C 434.402344 271.230469 429.488281 279.140625 423.171875 278.585938 C 420.117188 278.320312 418.289062 274.960938 414.664062 275.636719 C 411 276.320312 403.371094 285.003906 401.582031 284.878906 C 399 284.691406 394.707031 278.785156 392.035156 277.539062 C 390.785156 276.957031 389.476562 276.71875 388.105469 276.675781 C 381.503906 276.453125 376.753906 281.511719 370.082031 280.167969 C 361.988281 278.539062 354.234375 270.0625 346.398438 270.804688 C 335.84375 271.792969 320.292969 287.113281 312.855469 285.683594 C 308.707031 284.890625 305.800781 281.230469 301.75 279.980469 C 297.375 278.632812 293.035156 280.257812 288.6875 279.089844 C 276.796875 275.894531 264.714844 270.074219 252.757812 267.867188 C 249.496094 267.273438 244.6875 266.679688 241.683594 268.464844 C 228.125 276.519531 235.363281 327.386719 236.804688 339.515625 C 237.730469 347.320312 462.730469 394.859375 554.628906 374.792969 C 588.957031 367.328125 605.074219 290.984375 592.050781 265.488281 C 585.605469 252.871094 549.292969 280.335938 549.292969 280.335938 Z M 549.292969 280.335938 " fill-opacity="0.99" fill-rule="evenodd"/></g></g><path fill="#cee6f8" d="M 2.625 79.90625 C 2.863281 80.257812 4.515625 78.441406 4.648438 78.304688 C 10.910156 71.710938 22.066406 64.253906 31.464844 66.929688 C 37.425781 68.632812 36.519531 73.097656 40.019531 76.332031 C 42.636719 78.753906 46.40625 78.050781 49.117188 81.644531 C 50.484375 83.457031 49.902344 86.703125 51.386719 88.171875 C 54.097656 90.859375 58.625 90.285156 60.800781 94.214844 C 65.390625 102.488281 60.183594 107.507812 69.667969 108.835938 C 73.277344 109.335938 77.050781 105.363281 80.226562 104.148438 C 85.261719 102.21875 91.011719 104.566406 95.671875 102.664062 C 107.519531 97.839844 110.59375 76.457031 130.804688 92.609375 C 138.1875 98.515625 138.132812 106.871094 142.207031 114.441406 C 143.863281 117.523438 148.367188 118.894531 150.492188 121.957031 C 154.910156 128.34375 156.882812 136.5625 161.4375 142.914062 C 167.886719 151.917969 181.429688 159.695312 189.796875 167.042969 C 193.214844 170.039062 216.316406 186.863281 217.179688 189.472656 C 217.195312 189.535156 213.394531 187.996094 213.085938 187.84375 C 209.539062 186.050781 206 184.261719 202.453125 182.46875 C 188.886719 175.609375 175.105469 165.261719 160.21875 161.535156 C 159.445312 161.34375 155.460938 160.691406 155.082031 162.066406 C 155.03125 162.253906 159.183594 163.835938 159.464844 163.984375 C 163.222656 165.949219 166.84375 168.632812 168.710938 172.566406 C 170.574219 176.476562 168.121094 182.277344 170.429688 185.5 C 173.476562 189.761719 181.078125 187.914062 182.550781 194.566406 C 183.6875 199.722656 177.722656 205.066406 180.777344 209.507812 C 183.875 214.023438 205.019531 228.402344 205.15625 231.921875 C 205.234375 233.808594 201.820312 230.152344 200.195312 229.1875 C 197.351562 227.476562 189.996094 222.152344 186.496094 223.847656 C 183.546875 225.265625 194.890625 236.785156 196.773438 239.324219 C 200.726562 244.636719 220.144531 243.132812 228.382812 247.609375 C 232.398438 249.789062 239.359375 274.265625 258.269531 286.015625 C 272.417969 294.804688 297.480469 289.957031 309.976562 298.78125 C 328.554688 311.890625 338.972656 323.539062 338.972656 323.539062 L 3.972656 325.726562 Z M 2.625 79.90625 " fill-opacity="0.99" fill-rule="evenodd"/><g clip-path="url(#f141ebc4d4)"><g clip-path="url(#9cd0ddf402)"><path fill="#8bcdef" d="M 9.921875 76.15625 C 14.179688 77.28125 20.035156 74.445312 25.191406 76.363281 C 35.988281 80.382812 49.199219 104.652344 49.007812 115.804688 C 48.957031 118.703125 54.789062 120.714844 56.929688 122.246094 C 58.40625 123.300781 62.648438 125.941406 60.832031 126.054688 C 58.472656 126.203125 55.949219 120.5 52.921875 121.90625 C 50.683594 122.953125 51.679688 142.316406 56.5 143.914062 C 70.980469 148.710938 72.75 126.777344 78.015625 118.933594 C 79.921875 116.09375 82.613281 113.941406 85.777344 112.644531 C 90.941406 110.515625 96.332031 111.816406 101.335938 110.1875 C 106.410156 108.535156 109.859375 102.992188 115.992188 104.300781 C 126.75 106.597656 117.234375 118.390625 118.367188 120.878906 C 118.382812 120.917969 120.664062 119.796875 120.8125 119.730469 C 123.722656 118.464844 127.667969 117.882812 130.550781 119.613281 C 131.105469 119.945312 131.554688 120.40625 131.953125 120.914062 C 133.792969 123.25 132.480469 126.320312 133.726562 128.347656 C 134.695312 129.945312 137.777344 129.535156 138.871094 131.847656 C 140.167969 134.605469 138.972656 137.871094 140.742188 140.410156 C 142.203125 142.492188 154.898438 148.824219 154.363281 150.960938 C 154.324219 151.105469 151.414062 149.578125 151.203125 149.480469 C 148.929688 148.351562 146.660156 147.1875 144.34375 146.140625 C 140.667969 144.488281 114.4375 137.949219 113.125 141.320312 C 113.101562 141.382812 124.015625 146.394531 124.878906 147.054688 C 129.671875 150.714844 128.597656 157.40625 132.300781 160.714844 C 136.535156 164.496094 143.515625 163.636719 147.664062 167.988281 C 149.382812 169.796875 133.503906 163.847656 134.714844 168.300781 C 137.90625 180.054688 146.808594 173.671875 153.601562 179.203125 C 156.402344 181.480469 156.421875 187.285156 158.777344 188.660156 C 161.847656 190.464844 170.390625 190.371094 171.152344 195.15625 C 171.433594 196.890625 167.164062 195.910156 166.539062 196.660156 C 165.613281 197.777344 169.992188 205.742188 169.132812 206.019531 C 167.175781 206.648438 152.054688 195.472656 149.828125 197.988281 C 149.160156 198.75 157.59375 204.355469 158.277344 204.867188 C 163.066406 208.445312 174.171875 215.699219 175.796875 221.839844 C 176.691406 225.238281 161.289062 218.351562 161.007812 221.867188 C 160.730469 225.300781 172.164062 235.007812 174.234375 237.847656 C 176.933594 241.539062 178.75 246.265625 182.105469 249.421875 C 189.40625 256.300781 199.246094 259.710938 206.542969 266.902344 C 217.726562 277.914062 237.644531 307.984375 224.230469 323.859375 C 214.769531 335.058594 175.652344 329.800781 163.183594 328.453125 C 107.0625 322.382812 51.351562 312.390625 -5.242188 313.035156 C -52.671875 313.578125 9.921875 76.15625 9.921875 76.15625 Z M 9.921875 76.15625 " fill-opacity="0.99" fill-rule="evenodd"/></g></g><path fill="#ffffff" d="M 338.144531 323.675781 C 338.144531 323.675781 322.171875 300.117188 320.515625 299.332031 C 317.410156 297.867188 312.292969 297.707031 309.71875 295.578125 C 303.222656 290.207031 306.839844 281.117188 295.953125 277.488281 C 283.058594 273.1875 265.089844 287.421875 254.296875 278.007812 C 251.785156 275.8125 251.386719 269.371094 249.15625 266.460938 C 246.183594 262.566406 241.988281 262.402344 238.480469 259.816406 C 231.558594 254.707031 230.304688 245.851562 220.652344 241.75 C 197.152344 231.773438 181.144531 258.078125 177.410156 258.140625 C 167.296875 258.304688 162.867188 234.054688 157.539062 227.683594 C 150.335938 219.074219 138.3125 227.539062 131.765625 221.207031 C 126.859375 216.472656 130.738281 205.355469 128.542969 199.253906 C 127.328125 195.875 122.546875 193.796875 121.871094 190.945312 C 120.28125 184.25 126.085938 176.859375 120.546875 170.585938 C 115.660156 165.042969 106.265625 166.375 101.757812 160.851562 C 98.046875 156.296875 103.730469 148.605469 97.84375 144.429688 C 89.527344 138.519531 74.117188 138.574219 65.375 143.351562 C 63.359375 144.449219 61.800781 147.90625 59.796875 148.472656 C 55.128906 149.785156 50.355469 148.011719 45.765625 150.96875 C 44.011719 152.089844 41.601562 158.910156 41.0625 159.085938 C 40.214844 159.371094 36.570312 155.488281 35.878906 154.992188 C 33.28125 153.117188 29.257812 153.046875 26.933594 151.179688 C 26.160156 150.558594 27.445312 149.148438 27.78125 148.679688 C 31.636719 143.316406 36.613281 137.832031 38.179688 131.238281 C 39.375 126.21875 33.601562 125.574219 33.289062 121.289062 C 32.105469 105.347656 1.785156 75.945312 1.785156 75.945312 L 0.0195312 325.507812 C 112.996094 326.136719 226.03125 326.988281 338.144531 323.675781 Z M 338.144531 323.675781 " fill-opacity="1" fill-rule="evenodd"/><g clip-path="url(#c096c5bb79)"><g clip-path="url(#562943dff0)"><path fill="#daf1f9" d="M -7.894531 99.539062 C -7.210938 100.53125 -5.878906 98.105469 -4.703125 97.824219 C 1.609375 96.324219 15.371094 112.832031 17.660156 118.734375 C 20.839844 126.960938 12.015625 131.5 12.445312 138.1875 C 12.734375 142.605469 15.621094 146.320312 15.5 151 C 15.394531 154.851562 12.140625 160.53125 13.097656 164.085938 C 15.0625 171.425781 22.816406 174.582031 23.375 183.519531 C 23.417969 184.226562 23.417969 184.96875 23.164062 185.648438 C 21.105469 191.183594 12.054688 178.84375 10.027344 180.542969 C 9.789062 180.738281 12.539062 182.90625 12.722656 183.066406 C 15.089844 185.144531 17.277344 187.46875 19.238281 189.933594 C 23.84375 195.738281 22.871094 202.226562 25.972656 207.914062 C 26.683594 209.226562 26.175781 204.933594 26.285156 203.449219 C 26.515625 200.402344 27.457031 192.410156 31.671875 192.136719 C 36.730469 191.8125 37.25 200.640625 40.101562 201.117188 C 40.925781 201.253906 44.804688 194.398438 46.207031 193.691406 C 48.707031 192.4375 54.726562 192.855469 57.65625 192.296875 C 71.324219 189.695312 80.9375 184.792969 89.488281 201.53125 C 98.5625 219.285156 73.625 212.957031 64.410156 228.964844 C 64.023438 229.644531 60.664062 234.96875 61.386719 235.664062 C 62 236.25 69.308594 229.246094 69.914062 228.78125 C 76.367188 223.875 85.6875 218.925781 93.585938 223.707031 C 98.578125 226.730469 98.394531 231.65625 101.59375 235.609375 C 105.6875 240.671875 112.773438 237.328125 114.515625 246.640625 C 114.570312 246.953125 114.65625 250.566406 115.046875 250.574219 C 121.035156 250.640625 126.496094 233.96875 139.550781 242.957031 C 144.117188 246.101562 157.089844 264.496094 156.527344 269.992188 C 156.367188 271.535156 156.019531 273.535156 157.832031 274.191406 C 165.757812 277.078125 168.054688 269.429688 177.09375 270.488281 C 180.964844 270.941406 186.390625 276.261719 189.851562 275.277344 C 198.121094 272.921875 202.289062 265.035156 212.347656 266.421875 C 223.785156 268 226.527344 277.488281 234.917969 282.78125 C 237.636719 284.496094 240.453125 279.777344 243.101562 282.507812 C 245.210938 284.679688 244.179688 294.589844 245.5 295.136719 C 247.480469 295.960938 254.964844 291.632812 257.328125 291.261719 C 265.53125 289.984375 267.898438 296.015625 273.992188 296.90625 C 279.640625 297.734375 284.964844 291.78125 292.089844 293.6875 C 305.761719 297.347656 307.675781 319.917969 306.050781 331.246094 C 305.035156 338.34375 92.957031 411.9375 1.207031 341.679688 C -53.324219 299.875 -7.894531 99.539062 -7.894531 99.539062 Z M -7.894531 99.539062 " fill-opacity="0.99" fill-rule="evenodd"/></g></g><path fill="#ffffff" d="M 516.484375 318.449219 C 516.484375 318.449219 520.050781 309.699219 520.199219 308.957031 C 520.503906 307.449219 521.304688 306.042969 522.222656 304.828125 C 525.292969 300.742188 529.886719 298.863281 534.90625 298.609375 C 537.734375 298.460938 540.953125 299.890625 543.65625 299.464844 C 548.757812 298.664062 550.457031 290.863281 554.660156 288.96875 C 557.9375 287.488281 562.726562 288.441406 565.574219 286.25 C 568.425781 284.058594 569.898438 280.832031 573.324219 279.246094 C 584.832031 273.910156 587.503906 280.355469 596.855469 271.15625 C 600.261719 267.800781 599.054688 261.152344 601.722656 257.058594 C 606.410156 249.871094 614.675781 250.347656 620.691406 245.582031 C 624.898438 242.242188 625.601562 237.324219 631.484375 235.332031 C 646.851562 230.125 653.078125 243.988281 659.992188 243.042969 C 662.726562 242.671875 665.503906 239.269531 667.949219 238.003906 C 670.601562 236.632812 673.714844 237.34375 676.039062 235.234375 C 683.722656 228.261719 677.027344 219.992188 681.484375 211.519531 C 686.621094 201.742188 696.332031 201.722656 703.472656 195.351562 C 704.207031 194.699219 702.570312 188.40625 703.460938 186.515625 C 705.371094 182.464844 710.042969 181.453125 712.21875 177.808594 C 719.433594 165.769531 713.113281 157.6875 732.207031 150.425781 C 741.261719 146.980469 756.390625 146.828125 761.117188 157.335938 C 762.621094 160.679688 761.582031 167.195312 763.707031 169.804688 C 765.5625 172.078125 770.832031 170.417969 773.4375 171.785156 C 777.222656 173.769531 777.828125 182.785156 783.820312 180.371094 C 785.992188 179.496094 783.402344 163.113281 784.914062 158.34375 C 788.753906 146.214844 792.933594 133.203125 803.25 125.027344 C 804.570312 123.980469 815.902344 118.71875 815.902344 118.71875 L 817.914062 312.382812 Z M 516.484375 318.449219 " fill-opacity="1" fill-rule="evenodd"/><g clip-path="url(#dc179797ff)"><g clip-path="url(#540dd9c82a)"><path fill="#daf1f9" d="M 592.375 318.347656 C 593.332031 317.789062 598.308594 307.808594 598.519531 306.722656 C 599.003906 304.21875 600.15625 302.042969 601.992188 300.265625 C 607.507812 294.933594 614.25 298.566406 619.355469 295.296875 C 622.746094 293.121094 621.335938 287.402344 626.054688 285.050781 C 631.714844 282.222656 647.234375 285.429688 648.527344 283.632812 C 648.902344 283.109375 646.96875 282.3125 646.726562 282.203125 C 644.015625 280.976562 630.511719 279.820312 630.710938 275.863281 C 630.824219 273.628906 655.988281 262.160156 659.796875 261.066406 C 667.679688 258.808594 670.832031 266.027344 677.492188 266.835938 C 681.441406 267.3125 687.050781 265.984375 690.34375 268.875 C 693.34375 271.515625 691.648438 275.042969 691.566406 278.53125 C 691.558594 278.851562 691.558594 282.566406 691.730469 282.484375 C 692.636719 282.058594 700.980469 266.960938 703.371094 264.523438 C 705.734375 262.105469 708.507812 260.257812 711.578125 258.871094 C 713.136719 258.164062 717.488281 258.117188 716.304688 256.878906 C 714.457031 254.941406 700.246094 261.445312 701.183594 253.644531 C 701.875 247.871094 722.492188 230.5625 728.042969 232.800781 C 731.03125 234.011719 721.0625 242.90625 721.507812 244.707031 C 722.003906 246.71875 728.703125 245.199219 730.363281 245.703125 C 732.773438 246.4375 734.433594 251.214844 736.359375 251.386719 C 737.863281 251.519531 741.070312 244.894531 742.046875 243.871094 C 745.324219 240.441406 750.53125 239.355469 753 235.171875 C 755.511719 230.910156 753.917969 224.925781 758.496094 221.707031 C 760.554688 220.257812 784.910156 217.429688 788.136719 218.089844 C 790.4375 218.5625 793.5625 222.363281 795.492188 222.152344 C 799.445312 221.734375 804.890625 217.164062 808.929688 215.847656 C 813.6875 214.300781 819.96875 212.617188 823.984375 216.726562 C 832.664062 225.59375 830.296875 255.78125 830.136719 267.328125 C 829.929688 281.898438 829.460938 296.453125 828.351562 310.980469 C 827.234375 325.511719 592.375 318.347656 592.375 318.347656 Z M 592.375 318.347656 " fill-opacity="0.99" fill-rule="evenodd"/></g></g><path fill="#daf1f9" d="M 716.703125 211.25 C 718.59375 209.632812 719.035156 206.738281 721.621094 205.15625 C 725.910156 202.535156 729.859375 204.410156 733.957031 202.8125 C 738.871094 200.894531 741.308594 195.859375 747.105469 194.53125 C 751.960938 193.421875 756.378906 194.929688 761.007812 196.144531 C 761.300781 196.21875 762.574219 196.683594 762.824219 196.285156 C 763.054688 195.914062 756.84375 191.414062 756.289062 190.757812 C 753.667969 187.640625 751.988281 180.695312 746.585938 181.824219 C 746.40625 181.863281 746.222656 181.910156 746.050781 181.972656 C 741.738281 183.5 742.988281 187.699219 740.550781 190.269531 C 735.941406 195.132812 728.457031 199.40625 722.640625 202.785156 C 720.851562 203.824219 716.703125 211.25 716.703125 211.25 Z M 716.703125 211.25 " fill-opacity="0.99" fill-rule="evenodd"/><g clip-path="url(#19ff78d378)"><g clip-path="url(#a3caeac555)"><g clip-path="url(#51f6885a5d)"><path fill="#e4edff" d="M -6.621094 280.339844 C -4.90625 274.664062 1.429688 281.136719 4.554688 280.601562 C 10.699219 279.546875 19.785156 257.882812 37.316406 257.371094 C 40.113281 257.292969 53.765625 263.261719 54.308594 262.96875 C 65.273438 257.054688 59.246094 245.007812 89.359375 244.125 C 101.835938 243.761719 105.714844 261.714844 113.328125 262.882812 C 126.085938 264.824219 177.042969 289.179688 177.582031 289.09375 C 182.324219 288.261719 185.011719 282.191406 190.710938 282.023438 C 195.335938 281.886719 214.378906 293.433594 216.339844 291.972656 C 232.671875 279.960938 235.9375 296.054688 246.613281 294.210938 C 256.316406 292.53125 262.414062 281.953125 278.003906 281.859375 C 304.984375 281.707031 310.890625 300.621094 314.429688 301.144531 C 329.441406 303.4375 342.171875 300.609375 357.484375 297.960938 C 360.503906 297.457031 367.617188 290.226562 370.769531 288.230469 C 382.402344 280.636719 426.074219 260.632812 438.28125 263.242188 C 456.808594 267.179688 460.882812 280.007812 463.425781 294.585938 C 463.625 295.472656 478.046875 294.550781 480.074219 295.4375 C 497.351562 303.089844 491.710938 318.472656 516.832031 314.117188 C 521.792969 313.277344 529.253906 304.445312 533.929688 301.601562 C 542.511719 296.300781 557.785156 295.867188 565.222656 294.601562 C 569.96875 293.769531 586.5625 273.011719 605.648438 275.902344 C 623.121094 278.550781 639.417969 299.507812 645.53125 300.433594 C 656.359375 302.070312 667.398438 303.746094 678.335938 305.421875 C 685.734375 306.53125 695.703125 314.140625 703.039062 312.863281 C 718.78125 310.148438 734.570312 298.375 751.714844 295.414062 C 763.683594 293.347656 782.167969 299.753906 787.453125 298.824219 C 788.207031 298.699219 790.035156 292.527344 791.554688 291.726562 C 801.429688 286.414062 823.632812 295.253906 823.632812 295.253906 L 822.960938 407.585938 L -7.308594 406.035156 Z M -6.621094 280.339844 " fill-opacity="1" fill-rule="evenodd"/></g></g></g><g clip-path="url(#292b64753f)"><g clip-path="url(#00089d67c8)"><g clip-path="url(#a542d9bc7b)"><g clip-path="url(#fc79990de8)"><g clip-path="url(#70a90797e8)"><path fill="#9f9df7" d="M -20.226562 302.441406 C -28.472656 300.675781 -9.230469 294.324219 -8.257812 294.113281 C 3.398438 291.554688 16.136719 300.734375 24.769531 298.851562 C 26.171875 298.542969 23.027344 293.832031 22.824219 293.28125 C 20.03125 286.804688 17.738281 282.765625 23.761719 276.453125 C 30.113281 269.867188 47.753906 262.886719 54.542969 274.347656 C 64.777344 291.5 67.558594 249.183594 85.324219 253.652344 C 100.414062 257.484375 102.921875 280.070312 115.414062 284.945312 C 134.097656 292.246094 156.011719 287.058594 175.4375 295.03125 C 177.785156 295.996094 194.808594 306.078125 197.074219 305.589844 C 216.171875 301.40625 214.957031 297.171875 234.914062 299.285156 C 240.386719 299.875 242.167969 308.730469 247.105469 309.246094 C 255.152344 310.105469 283.769531 284.097656 297.617188 303.472656 C 299.089844 305.402344 305.496094 320.371094 300.316406 321.503906 C 299.449219 321.695312 281.253906 323.496094 283.0625 324.632812 C 284.230469 325.394531 288.664062 323.894531 290.171875 323.734375 C 300.507812 322.648438 309.453125 321.429688 319.40625 323.957031 C 321.226562 324.40625 324.527344 326.152344 324.527344 326.152344 C 324.527344 326.152344 318.660156 323.632812 318.0625 320.921875 C 317.070312 316.230469 334.851562 313.679688 337.113281 313.441406 C 345.082031 312.601562 355.410156 318.058594 362.320312 316.535156 C 363.289062 316.328125 367.261719 304.261719 369.230469 302.402344 C 373.605469 298.234375 418.050781 282.863281 424.175781 283.035156 C 443.300781 283.59375 446.339844 306.53125 451.976562 316.144531 C 452.292969 316.527344 468.777344 314.417969 472.613281 316.269531 C 476.34375 318.042969 485.519531 328.222656 486.589844 328.496094 C 498.042969 331.375 501.375 325.113281 508.480469 337.007812 C 508.582031 337.277344 509.921875 340.6875 510.566406 340.535156 C 515.855469 339.371094 520.265625 333.074219 525.984375 331.839844 C 529.003906 331.171875 533.667969 335.09375 535.324219 332.433594 C 537.644531 328.96875 533.320312 317.886719 541.140625 313.21875 C 555.046875 304.957031 572.738281 307.425781 587.1875 311.085938 C 589.863281 311.769531 594.207031 315.550781 594.207031 315.550781 C 594.207031 315.550781 592.5 314.726562 591.867188 314.058594 C 589.332031 311.351562 573.738281 299.542969 573.953125 299.363281 C 609.332031 274.066406 621.675781 312.117188 634.925781 316.574219 C 644.332031 319.71875 655.257812 309.726562 665.960938 312.429688 C 676.875 315.1875 688.261719 315.679688 699.179688 318.4375 C 705.492188 320.042969 709.894531 326.546875 715.886719 328.070312 C 724.558594 330.253906 740.140625 318.015625 748.257812 314.984375 C 757.128906 311.679688 774.613281 319.875 781.375 314.367188 C 787.480469 309.464844 792.246094 301.414062 800.960938 300.757812 C 812.371094 299.914062 848.335938 296.425781 848.214844 315.675781 C 848.03125 332.421875 833.929688 351.976562 825.949219 365.765625 C 793.925781 420.632812 781.585938 431.617188 718.851562 447.746094 C 692.503906 454.53125 666.488281 460.730469 639.441406 464.503906 C 503.449219 483.566406 363.652344 461.816406 230.523438 433.878906 C 181.253906 423.539062 129.839844 413.117188 79.398438 414.523438 C 63.375 414.964844 48.109375 421.148438 32.109375 420.234375 C 18.792969 419.476562 -2.921875 413.292969 -15.4375 416.019531 C -27.847656 418.757812 -20.226562 302.441406 -20.226562 302.441406 Z M -20.226562 302.441406 " fill-opacity="1" fill-rule="evenodd"/></g></g></g></g></g><g clip-path="url(#44744fcf51)"><g clip-path="url(#da8a0a5c31)"><g clip-path="url(#6cf5e53b3e)"><path fill="#8079d1" d="M -8.8125 406.007812 L -7.089844 307.28125 C -7.089844 307.28125 10.972656 306.953125 15.457031 308.835938 C 22.394531 311.71875 40.488281 322.164062 43.195312 320.972656 C 44.820312 320.207031 46.921875 316.683594 48.449219 315.390625 C 54.671875 309.972656 72.945312 310.042969 72.945312 310.042969 C 72.945312 310.042969 73.050781 304.1875 82.546875 289.519531 C 89.398438 278.921875 107.800781 283.992188 107.800781 283.992188 C 107.800781 283.992188 118.664062 271.15625 122.46875 268.75 C 131.601562 262.996094 146.703125 259.832031 157.375 258.167969 C 179.042969 254.785156 202.117188 269.160156 216.699219 283.605469 C 220.1875 287.039062 222.910156 297.214844 225.242188 299.136719 C 228.101562 301.550781 238.6875 298.867188 242.761719 299.386719 C 253.269531 300.765625 268.335938 306.089844 277.042969 312.046875 C 288.625 319.957031 291.851562 338.332031 292.585938 351.824219 C 292.988281 359.550781 290.707031 366.90625 290.707031 366.90625 C 290.707031 366.90625 301.5 376.769531 300.367188 392.347656 C 298.785156 415.386719 269.804688 406.667969 269.804688 406.667969 Z M -8.8125 406.007812 " fill-opacity="1" fill-rule="evenodd"/></g></g></g><g clip-path="url(#ce94b3e9bf)"><g clip-path="url(#61e0b44010)"><g clip-path="url(#ab8679e7cd)"><g clip-path="url(#778722c977)"><g clip-path="url(#cb852e767c)"><path fill="#584e93" d="M -22.214844 332.996094 C -24.910156 333.496094 -17.671875 325.304688 -17.339844 324.78125 C -13.496094 320.183594 -9.136719 316.753906 -3.410156 314.886719 C 7.945312 311.164062 28.257812 323.695312 41.882812 325.085938 C 52.722656 326.1875 56.429688 316.910156 64.265625 317.734375 C 72.417969 318.609375 81.066406 322.050781 91.132812 330.296875 C 94.417969 333.019531 98.460938 335.554688 100.871094 339.089844 C 101.078125 339.40625 105.078125 344.3125 105.296875 344.121094 C 111.558594 336.4375 79.863281 310.859375 80.140625 307.339844 C 81.542969 288.550781 112.582031 296.304688 117.320312 295.839844 C 120.765625 295.515625 113.347656 289.398438 114.050781 286.035156 C 115.441406 280.316406 126.691406 276.226562 131.328125 275.414062 C 137.152344 274.40625 146.691406 275.800781 152.25 277.691406 C 153 277.964844 160.691406 280.6875 160.695312 280.375 C 160.046875 274.558594 169.363281 270.371094 178.078125 269.929688 C 188.40625 269.410156 198.101562 274.289062 202.285156 280.898438 C 202.914062 282.046875 208.359375 290.140625 208.683594 290.15625 C 215.554688 290.472656 218.945312 293.402344 219.847656 297.277344 C 220.738281 301.441406 219.554688 301.582031 208.511719 299.914062 C 201.222656 298.820312 194.417969 300.667969 187.71875 302.691406 C 186.960938 302.914062 180 295.226562 178.722656 294.601562 C 173.820312 292.097656 165.21875 292.289062 159.839844 292.519531 C 149.082031 292.988281 141.128906 299.074219 135.28125 307.742188 C 128.992188 316.898438 122.335938 328.597656 129.476562 319.992188 C 135.074219 313.1875 144.398438 314.921875 151.777344 317.058594 C 157.339844 318.695312 166.621094 322.585938 169.535156 328.195312 C 169.847656 328.855469 171.785156 334.835938 172.535156 334.910156 C 177.472656 335.417969 184.585938 328.230469 190.082031 327.382812 C 199.460938 325.910156 213.984375 331.378906 222.308594 334.78125 C 227.644531 336.925781 232.429688 339.878906 235.355469 344.824219 C 235.773438 345.484375 240.121094 355.074219 240.664062 354.828125 C 250.519531 350.460938 235.933594 330.320312 233.210938 325.953125 C 231.117188 322.710938 229.019531 319.71875 226.160156 317.292969 C 225.839844 317.105469 225.203125 316.804688 226.066406 316.519531 C 242.507812 310.679688 258.207031 310.328125 272.511719 322.167969 C 273.574219 323.023438 281.566406 327.066406 281.652344 328.292969 C 281.84375 329.519531 269.507812 340.355469 268.285156 342.816406 C 268.058594 343.371094 261.21875 353.359375 261.21875 353.359375 C 261.21875 353.359375 277.992188 346.898438 281.125 346.253906 C 292.777344 343.816406 292.574219 367.761719 296.65625 380.195312 C 299.3125 387.917969 323.425781 380.039062 320.929688 387.585938 C 312.199219 413.488281 290.652344 416.292969 265.785156 418.203125 C 214.332031 422.152344 163.097656 425.957031 111.828125 431.878906 C 96.101562 433.699219 -14.144531 424.820312 -29.324219 426.296875 C -44.613281 427.769531 -22.214844 332.996094 -22.214844 332.996094 Z M -22.214844 332.996094 " fill-opacity="1" fill-rule="evenodd"/></g></g></g></g></g><g clip-path="url(#447da07e04)"><g clip-path="url(#d7127dde11)"><g clip-path="url(#11bdf317f9)"><path fill="#8079d1" d="M 823.273438 346.703125 C 823.273438 346.703125 808.742188 329.21875 787.488281 339.757812 C 786.949219 340.027344 786.785156 337.046875 786.578125 336.519531 C 782.78125 326.25 776.65625 319.855469 769.820312 311.351562 C 766.03125 306.621094 759.113281 302.714844 754.058594 302.886719 C 752.765625 302.914062 748.34375 297.605469 747.710938 296.957031 C 742.738281 292.304688 736.230469 289.546875 729.820312 287.335938 C 709.519531 280.273438 689.742188 286.292969 670.894531 294.5625 C 654.644531 301.664062 648.441406 318.519531 643.984375 333.40625 C 642.847656 337.042969 633.511719 335.976562 630.585938 337.515625 C 625.808594 340.117188 624.441406 350.832031 620.871094 352.125 C 618.164062 353.164062 614.4375 351.175781 611.519531 352.027344 C 609.46875 352.59375 601.621094 358.765625 600.65625 358.503906 C 583.761719 353.445312 576.324219 329.839844 555.816406 334.652344 C 545.886719 336.972656 513.679688 353.167969 511.527344 353.238281 C 509.808594 353.292969 506.011719 361.28125 504.40625 360.820312 C 497.992188 358.914062 492.6875 361.121094 486.476562 359.777344 C 476.835938 357.707031 469.292969 346.339844 459.777344 343.5 C 454.429688 341.910156 454.015625 347.265625 447.953125 343.476562 C 430.832031 332.886719 422.738281 316.128906 400.152344 316.863281 C 388.210938 317.246094 373.613281 322.269531 363.71875 328.664062 C 361 330.433594 360.914062 335.496094 357.882812 336.613281 C 352.148438 338.738281 343.820312 335.464844 337.449219 337.277344 C 326.105469 340.519531 323.0625 354.699219 316.460938 357.144531 C 314.515625 357.882812 310.128906 356.539062 307.550781 356.621094 C 298.730469 356.910156 290.097656 364.710938 283.878906 370.054688 C 271.769531 380.386719 269.804688 406.667969 269.804688 406.667969 L 822.953125 408.113281 Z M 823.273438 346.703125 " fill-opacity="1" fill-rule="evenodd"/></g></g></g><g clip-path="url(#ef9b4b38fe)"><g clip-path="url(#ec1a81ccd4)"><g clip-path="url(#c832953e1f)"><g clip-path="url(#bd8055cb09)"><g clip-path="url(#4bca28bd24)"><path fill="#584e93" d="M 269.949219 398.320312 C 274.066406 396.550781 276.507812 379.964844 281.589844 378.066406 C 290.894531 374.625 315.480469 376.324219 325.011719 378.371094 C 331.222656 379.707031 351.921875 388.613281 356.011719 388.480469 C 357.300781 388.4375 351.628906 380.824219 345.058594 375.5625 C 339.332031 371.054688 329.910156 368.761719 325.152344 364.269531 C 324.730469 363.886719 323.015625 363.597656 323.457031 362.703125 C 324.574219 360.304688 329.777344 357.890625 331.953125 356.457031 C 338.589844 351.917969 350.375 347.984375 358.042969 352.085938 C 359.75 352.984375 366.628906 359.125 368.347656 359.070312 C 370.714844 358.992188 374.207031 356.164062 376.585938 355.28125 C 379.613281 354.171875 383.679688 355.21875 385.84375 354.429688 C 390.496094 352.671875 395.671875 351.753906 400.84375 351.230469 C 402.671875 351.058594 403.738281 351.410156 405.464844 351.355469 C 405.785156 351.339844 408.035156 351.648438 407.929688 351.539062 C 404.289062 344.734375 390.0625 346.839844 383.949219 345.820312 C 382.023438 345.507812 379.777344 344.863281 377.949219 344.929688 C 376.871094 344.964844 374.273438 346.027344 374.933594 345.296875 C 386.433594 333.027344 404.75 330.59375 419.222656 338.972656 C 423.691406 341.566406 429.96875 345.246094 433.125 349.363281 C 434.066406 350.691406 436.753906 356.921875 437.625 356.269531 C 442.847656 352.585938 454.40625 355.667969 459.191406 358.546875 C 461.320312 359.84375 462.910156 361.183594 465.257812 362.148438 C 466.429688 362.652344 469.84375 364.164062 468.550781 364.203125 C 462.636719 364.402344 458.992188 363.972656 454.085938 367.941406 C 453.210938 368.558594 448.589844 374.894531 447.730469 374.644531 C 438.105469 371.777344 428.578125 369.675781 418.195312 373.171875 C 412.140625 375.183594 406.066406 378.421875 401.367188 382.671875 C 399.292969 384.550781 396.351562 386.691406 394.804688 389.113281 C 394.472656 389.667969 393.808594 390.785156 393.808594 390.785156 C 393.808594 390.785156 395 390.203125 395.652344 389.902344 C 398.90625 388.28125 401.730469 386.441406 405.300781 385.253906 C 412.546875 382.800781 423.53125 381.574219 431.152344 382.234375 C 442.636719 383.230469 450.824219 388.265625 460.855469 392.664062 C 464.160156 394.109375 468.128906 394.757812 471.210938 396.660156 C 472.59375 397.46875 474.816406 399.519531 474.816406 399.519531 C 474.816406 399.519531 473.550781 398.207031 473.132812 397.414062 C 471.464844 394.367188 468.820312 391.878906 465.84375 390.054688 C 461.378906 387.277344 456.804688 384.359375 451.785156 382.648438 C 450.394531 382.160156 446.089844 382.539062 445.03125 381.519531 C 444.925781 381.496094 452.066406 378.773438 453.039062 378.542969 C 462 376.429688 466.554688 380.1875 474.816406 381.09375 C 479.644531 381.617188 478.53125 377.492188 482.761719 375.40625 C 489.59375 372.03125 504.082031 373.261719 510.464844 377.210938 C 514.71875 379.855469 504.589844 381.207031 500.648438 385.394531 C 499.988281 386.15625 497.117188 390.394531 497.859375 391.183594 C 499.023438 392.234375 512.011719 387.0625 517.273438 387.296875 C 519.636719 387.402344 539.789062 390.765625 539.898438 390.625 C 541.980469 388.371094 530.371094 382.171875 529.304688 381.753906 C 528.558594 381.472656 523.304688 380.617188 523.855469 379.757812 C 525.410156 376.957031 528.140625 374.574219 530.332031 372.226562 C 549.171875 352.164062 562.90625 365.820312 582.367188 371.621094 C 583.011719 371.792969 578.746094 375.976562 578.195312 376.632812 C 577.207031 378 572.582031 390.378906 573.765625 390.335938 C 576.667969 390.246094 581.28125 384.769531 583.5625 383.238281 C 591.175781 378.160156 598.261719 372.597656 607.332031 370.261719 C 615 368.289062 625.226562 367.464844 633.042969 369.152344 C 633.683594 369.300781 641.496094 371.339844 641.496094 371.320312 C 644.234375 368.433594 640.367188 362.085938 645.152344 359 C 649.9375 355.921875 661.335938 355.636719 666.582031 356.945312 C 667.863281 357.277344 673.273438 361.394531 674.246094 361.035156 C 677.925781 359.679688 682.175781 356.386719 685.96875 354.679688 C 692.792969 351.628906 704.140625 348.183594 711.539062 349.238281 C 714.21875 349.628906 717.222656 350.226562 719.78125 351.144531 C 720.210938 351.300781 723.085938 352.953125 723.089844 352.664062 C 723.019531 350.480469 713.933594 347.570312 712.335938 346.777344 C 703.167969 342.316406 693.875 338.972656 683.550781 339.308594 C 679.460938 339.441406 675.660156 341.730469 671.679688 341.867188 C 670.28125 341.917969 670.992188 338.15625 671.003906 337.542969 C 671.972656 325.089844 683.925781 317.753906 694.105469 313.480469 C 715.003906 304.6875 751.855469 318.121094 766.175781 335.257812 C 772.703125 343.199219 765.410156 342.125 759.894531 344.136719 C 755.460938 345.777344 751.304688 349.683594 747.496094 352.410156 C 744.339844 354.613281 744.558594 354.402344 741.621094 356.394531 C 740.316406 357.265625 736.402344 359.765625 737.914062 359.230469 C 751.980469 354.015625 765.609375 355.351562 779.71875 360.035156 C 784.421875 361.59375 794.390625 356.949219 798.519531 360.601562 C 818 377.796875 811.523438 410.050781 805.003906 420.214844 C 780.691406 458.359375 728.691406 456.699219 685.167969 462.085938 C 667.714844 464.246094 649.71875 466.84375 632.175781 468.148438 C 619.902344 469.066406 607.335938 468.523438 595.160156 470.167969 C 576.734375 472.652344 557.53125 476.8125 538.929688 476.886719 C 490.984375 477.078125 442.753906 468.808594 395.101562 464.484375 C 369.34375 462.152344 343.925781 458.863281 318.289062 455.597656 C 301.449219 453.457031 282.292969 454.90625 267.066406 446.425781 C 256.636719 440.621094 269.949219 398.320312 269.949219 398.320312 Z M 269.949219 398.320312 " fill-opacity="1" fill-rule="evenodd"/></g></g></g></g></g></svg>