<svg xmlns="http://www.w3.org/2000/svg" xmlns:xlink="http://www.w3.org/1999/xlink" width="1080" zoomAndPan="magnify" viewBox="0 0 810 404.99999" height="540" preserveAspectRatio="xMidYMid meet" version="1.0"><defs><clipPath id="c0e58003b5"><path d="M 327.324219 288.328125 L 482.675781 288.328125 L 482.675781 384.410156 L 327.324219 384.410156 Z M 327.324219 288.328125 " clip-rule="nonzero"/></clipPath><clipPath id="22c2e8b62b"><path d="M 150 263 L 261 263 L 261 404.972656 L 150 404.972656 Z M 150 263 " clip-rule="nonzero"/></clipPath><clipPath id="19949facdd"><path d="M 57 280 L 162 280 L 162 404.972656 L 57 404.972656 Z M 57 280 " clip-rule="nonzero"/></clipPath><clipPath id="071c8031f5"><path d="M 309 33.722656 L 472 33.722656 L 472 289 L 309 289 Z M 309 33.722656 " clip-rule="nonzero"/></clipPath><clipPath id="c92f28313f"><path d="M 235 72 L 502 72 L 502 404.972656 L 235 404.972656 Z M 235 72 " clip-rule="nonzero"/></clipPath><clipPath id="2ea2b9d16f"><path d="M 118 211 L 264 211 L 264 404.972656 L 118 404.972656 Z M 118 211 " clip-rule="nonzero"/></clipPath><clipPath id="516771e331"><path d="M 466 162 L 753 162 L 753 404.972656 L 466 404.972656 Z M 466 162 " clip-rule="nonzero"/></clipPath><clipPath id="0bd33dedac"><path d="M 289 219 L 641 219 L 641 404.972656 L 289 404.972656 Z M 289 219 " clip-rule="nonzero"/></clipPath></defs><g clip-path="url(#c0e58003b5)"><path fill="#433c80" d="M 327.324219 288.328125 L 482.707031 288.328125 L 482.707031 384.410156 L 327.324219 384.410156 Z M 327.324219 288.328125 " fill-opacity="1" fill-rule="nonzero"/></g><path fill="#352e6d" d="M 185.222656 279.699219 C 178.921875 272.554688 172.617188 265.410156 166.308594 258.265625 C 165.570312 257.425781 164.734375 256.550781 163.722656 256.144531 C 164.335938 258.675781 164.847656 261.164062 165.257812 263.621094 C 172.132812 269.191406 178.285156 274.722656 185.222656 279.699219 " fill-opacity="1" fill-rule="nonzero"/><path fill="#433c80" d="M 157.1875 316.839844 C 157.199219 316.761719 157.222656 316.6875 157.238281 316.605469 C 157.214844 316.570312 157.199219 316.53125 157.1875 316.488281 L 157.1875 316.839844 " fill-opacity="1" fill-rule="nonzero"/><path fill="#352e6d" d="M 180.082031 290.320312 L 167.203125 278.121094 C 167.429688 279.949219 167.691406 281.824219 167.960938 283.71875 L 182.992188 302.199219 L 180.082031 290.320312 " fill-opacity="1" fill-rule="nonzero"/><g clip-path="url(#22c2e8b62b)"><path fill="#584e93" d="M 247.488281 354.476562 C 241.109375 343.066406 232.390625 333.171875 223.742188 323.363281 C 214.832031 313.265625 205.929688 303.171875 197.019531 293.070312 C 193.085938 288.613281 189.152344 284.15625 185.222656 279.699219 C 178.285156 274.722656 172.132812 269.191406 165.257812 263.621094 C 165.902344 267.464844 166.363281 271.300781 166.839844 275.191406 C 166.957031 276.167969 167.074219 277.128906 167.203125 278.121094 L 180.082031 290.320312 L 182.90625 301.832031 L 182.992188 302.199219 L 167.960938 283.71875 C 168.042969 284.265625 168.101562 284.789062 168.1875 285.351562 C 164.003906 295.917969 159.128906 305.523438 157.238281 316.605469 C 159.414062 322.089844 161.949219 327.304688 164.21875 332.449219 C 162.667969 341.207031 161.1875 349.96875 159.660156 358.726562 C 156.964844 374.171875 154.117188 389.609375 150.414062 405.046875 L 243.527344 405.046875 C 248.84375 395.007812 251.8125 382.808594 260.351562 375.285156 C 254.625 369.4375 251.484375 361.625 247.488281 354.476562 " fill-opacity="1" fill-rule="nonzero"/></g><g clip-path="url(#19949facdd)"><path fill="#9a8abb" d="M 155.085938 330.519531 L 149.402344 326.730469 L 126.882812 361.324219 L 128.160156 355.199219 L 130.519531 343.929688 L 146.273438 312.761719 L 155.542969 294.410156 L 154.644531 280.445312 L 150 281.4375 L 143.027344 305.230469 L 133.527344 309.082031 L 133.011719 309.753906 L 117.988281 329.328125 C 108.5 333.136719 100.292969 337.660156 93.003906 343.210938 C 87.382812 349.9375 81.800781 358.511719 76.566406 367.515625 C 69.011719 380.519531 62.1875 394.433594 57.050781 405.046875 L 150.414062 405.046875 C 154.117188 389.609375 156.964844 374.171875 159.660156 358.726562 C 160.382812 354.574219 161.097656 350.417969 161.816406 346.261719 L 155.085938 330.519531 " fill-opacity="1" fill-rule="nonzero"/></g><path fill="#352e6d" d="M 157.1875 316.839844 L 157.1875 316.488281 C 157.199219 316.53125 157.214844 316.570312 157.238281 316.605469 C 159.128906 305.523438 164.003906 295.917969 168.1875 285.351562 C 167.015625 277.742188 166.441406 270.753906 165.257812 263.621094 C 164.847656 261.164062 164.335938 258.675781 163.722656 256.144531 C 163.425781 256.027344 163.117188 255.9375 162.789062 255.917969 C 160.945312 255.796875 159.527344 257.441406 158.433594 258.929688 C 148.605469 272.355469 139.472656 286.289062 131.089844 300.660156 C 127.433594 306.933594 123.886719 313.339844 119.109375 318.8125 C 113.355469 325.398438 106.035156 330.386719 99.554688 336.261719 C 97.382812 338.234375 95.1875 340.597656 93.003906 343.210938 C 100.292969 337.660156 108.5 333.136719 117.988281 329.328125 L 133.011719 309.753906 L 133.527344 309.082031 L 143.027344 305.230469 L 150 281.4375 L 154.644531 280.445312 L 155.542969 294.410156 L 130.519531 343.929688 L 126.882812 361.324219 L 149.402344 326.730469 L 155.085938 330.519531 L 161.816406 346.261719 C 162.609375 341.660156 163.40625 337.054688 164.21875 332.449219 C 161.949219 327.304688 159.414062 322.089844 157.238281 316.605469 C 157.222656 316.6875 157.199219 316.761719 157.1875 316.839844 " fill-opacity="1" fill-rule="nonzero"/><path fill="#433c80" d="M 223.285156 266.914062 L 222.871094 267.371094 L 223.285156 266.910156 Z M 223.285156 266.914062 " fill-opacity="1" fill-rule="nonzero"/><g clip-path="url(#071c8031f5)"><path fill="#352e6d" d="M 408.785156 72.9375 L 435.054688 119.636719 L 466.921875 150.78125 L 445.058594 113.402344 L 471.390625 129.488281 C 441.996094 102.253906 417.550781 69.683594 399.753906 33.785156 C 398.722656 34.882812 397.699219 35.988281 396.667969 37.089844 L 387.730469 71.941406 L 361.574219 104.097656 L 381.085938 153.191406 L 355.027344 230.753906 L 319.589844 253.429688 L 309.777344 288.765625 L 356.734375 243.039062 L 370.207031 267.507812 L 365.292969 234.253906 L 393.070312 156.207031 L 389.335938 166.707031 L 397.839844 227.582031 L 413.363281 251.527344 L 403.042969 167.449219 L 416.699219 166.691406 L 442.03125 189.335938 L 426.191406 155.867188 L 387.933594 133.195312 L 382 106.605469 L 402.382812 101.933594 L 408.785156 72.9375 " fill-opacity="1" fill-rule="nonzero"/></g><path fill="#352e6d" d="M 315.699219 149.585938 C 314.972656 151.410156 314.265625 153.25 313.554688 155.085938 L 326.8125 137.414062 L 350.179688 97.875 L 393.53125 49.332031 L 396.667969 37.089844 C 364.910156 71.136719 332.960938 106.425781 315.699219 149.585938 " fill-opacity="1" fill-rule="nonzero"/><path fill="#352e6d" d="M 249.625 203.679688 L 251.664062 180.257812 C 237.519531 207.351562 223.664062 245.976562 213.925781 277.191406 L 221.582031 268.785156 L 245.730469 211.1875 L 252.683594 237.046875 L 266.597656 265.488281 L 249.625 203.679688 " fill-opacity="1" fill-rule="nonzero"/><path fill="#352e6d" d="M 260.425781 221.902344 L 260.285156 221.03125 L 260.402344 220.890625 L 259.746094 189.949219 L 275.082031 189.617188 C 262.828125 184.320312 252.175781 179.253906 252.175781 179.253906 C 252.003906 179.582031 251.835938 179.929688 251.664062 180.257812 L 249.625 203.679688 L 266.597656 265.488281 L 267.585938 267.515625 L 260.425781 221.902344 " fill-opacity="1" fill-rule="nonzero"/><path fill="#352e6d" d="M 361.753906 104.566406 L 327.515625 153.484375 L 318.878906 178.070312 L 355.132812 134.90625 L 380.96875 153.542969 L 381.085938 153.191406 L 361.753906 104.566406 " fill-opacity="1" fill-rule="nonzero"/><path fill="#9a8abb" d="M 393.53125 49.332031 L 350.179688 97.875 L 326.8125 137.414062 L 313.554688 155.085938 C 311.058594 161.558594 308.492188 168.011719 304.527344 173.675781 C 299.300781 181.140625 292.097656 186.632812 284.464844 191.726562 L 283.433594 192.726562 L 318.238281 206.605469 L 297.988281 213.910156 L 319.753906 253.324219 L 353.042969 232.023438 L 355.027344 230.753906 L 380.96875 153.542969 L 355.132812 134.90625 L 318.878906 178.070312 L 327.515625 153.484375 L 361.753906 104.566406 L 361.574219 104.097656 L 387.730469 71.941406 L 393.53125 49.332031 " fill-opacity="1" fill-rule="nonzero"/><g clip-path="url(#c92f28313f)"><path fill="#584e93" d="M 307.089844 298.4375 L 307.464844 297.082031 L 308.359375 293.863281 Z M 471.390625 129.488281 L 445.058594 113.402344 L 466.921875 150.78125 L 435.054688 119.636719 L 408.785156 72.9375 L 402.382812 101.933594 L 382 106.605469 L 387.933594 133.195312 L 426.191406 155.867188 L 428.636719 161.027344 L 441.152344 187.488281 L 442.03125 189.335938 L 416.699219 166.691406 L 403.042969 167.449219 L 412.707031 246.132812 L 413.363281 251.527344 L 411.046875 247.953125 L 397.839844 227.582031 L 394.136719 201.066406 L 389.335938 166.707031 L 365.292969 234.253906 L 370.207031 267.507812 L 356.734375 243.039062 L 309.777344 288.765625 L 319.589844 253.429688 L 319.753906 253.324219 L 297.988281 213.910156 L 318.238281 206.605469 L 283.433594 192.726562 L 284.464844 191.726562 C 283.890625 192.109375 283.320312 192.492188 282.746094 192.871094 C 280.175781 191.800781 277.601562 190.707031 275.082031 189.617188 L 259.746094 189.949219 L 260.402344 220.890625 L 260.285156 221.03125 L 267.175781 264.902344 L 267.585938 267.515625 L 263.46875 259.09375 L 262.503906 331.601562 L 262.617188 331.289062 L 247.121094 373.894531 L 235.84375 404.925781 L 235.796875 405.046875 L 342.082031 405.046875 L 355.066406 335.910156 L 355.1875 335.277344 L 359.453125 312.546875 L 389.738281 287.984375 L 403.625 276.710938 L 416.132812 266.5625 L 438.746094 229.367188 L 448.621094 213.121094 L 454.914062 202.773438 L 455.492188 201.820312 L 461.675781 191.648438 L 475.429688 189.394531 L 493.875 164.507812 L 501.484375 154.230469 C 490.972656 146.59375 480.921875 138.320312 471.390625 129.488281 " fill-opacity="1" fill-rule="nonzero"/></g><g clip-path="url(#2ea2b9d16f)"><path fill="#9a8abb" d="M 251.914062 235.476562 L 252.683594 237.046875 L 245.730469 211.1875 L 221.582031 268.785156 L 222.871094 267.371094 L 223.285156 266.914062 L 223.285156 266.910156 L 222.871094 267.371094 L 213.925781 277.191406 C 209.871094 285.0625 205.78125 292.898438 201.382812 300.445312 C 188.3125 322.863281 172 343.378906 153.109375 361.167969 L 135.148438 384.640625 L 118.726562 405.046875 L 235.796875 405.046875 L 262.503906 331.601562 L 263.46875 259.09375 L 251.914062 235.476562 " fill-opacity="1" fill-rule="nonzero"/></g><path fill="#352e6d" d="M 466.992188 246.546875 L 483.996094 265.007812 L 482.210938 259.265625 L 469.828125 246.886719 L 466.386719 208.371094 L 479.238281 194.320312 L 481.167969 181.648438 L 475.429688 189.394531 L 461.839844 191.621094 L 460.894531 221.945312 L 466.992188 246.546875 " fill-opacity="1" fill-rule="nonzero"/><path fill="#352e6d" d="M 466.992188 246.546875 L 460.894531 221.945312 L 461.839844 191.621094 L 461.675781 191.648438 L 414.429688 269.367188 L 423.660156 264.878906 L 455.976562 219.765625 L 463.621094 248 L 484.847656 267.738281 L 483.996094 265.007812 L 466.992188 246.546875 " fill-opacity="1" fill-rule="nonzero"/><path fill="#352e6d" d="M 498.46875 165.511719 L 502.570312 175.015625 L 502.421875 162.949219 L 508.59375 147.632812 C 505.660156 151.183594 501.789062 154.460938 501.789062 154.460938 C 501.6875 154.386719 501.585938 154.308594 501.484375 154.230469 L 481.167969 181.648438 L 479.238281 194.320312 L 479.429688 194.113281 L 507.03125 213.503906 L 490.898438 190.261719 L 498.46875 165.511719 " fill-opacity="1" fill-rule="nonzero"/><path fill="#352e6d" d="M 587.578125 229.773438 C 585.925781 226.144531 584.511719 222.269531 581.6875 219.453125 C 578.070312 215.851562 572.804688 214.628906 568.113281 212.605469 C 540.777344 200.796875 534.378906 162.535156 508.609375 147.613281 C 508.605469 147.617188 508.597656 147.625 508.59375 147.632812 L 502.421875 162.949219 L 502.570312 175.015625 L 503.003906 176.023438 L 506.730469 162.058594 L 524.574219 176.023438 L 542.871094 211.113281 L 528.851562 275.425781 L 541.445312 257.597656 L 554.390625 221.933594 L 570.707031 222.140625 L 589.550781 233.714844 C 588.863281 232.421875 588.191406 231.113281 587.578125 229.773438 " fill-opacity="1" fill-rule="nonzero"/><g clip-path="url(#516771e331)"><path fill="#584e93" d="M 710.921875 350.503906 C 704.5 345.554688 698.070312 340.609375 691.648438 335.65625 C 688.183594 332.988281 684.679688 330.296875 680.664062 328.582031 C 677.152344 327.082031 673.335938 326.363281 669.898438 324.710938 C 668.875 324.21875 667.914062 323.640625 666.976562 323.019531 C 663.226562 320.511719 660.097656 317.066406 657.066406 313.679688 C 645.546875 300.800781 634.035156 287.925781 622.523438 275.050781 C 618.953125 271.058594 615.382812 267.074219 611.820312 263.078125 C 603.613281 253.902344 595.3125 244.546875 589.550781 233.714844 L 570.707031 222.140625 L 554.390625 221.933594 L 541.445312 257.597656 L 529.878906 273.96875 L 528.851562 275.425781 L 537.980469 233.550781 L 539.042969 228.679688 L 542.871094 211.113281 L 535.171875 196.34375 L 524.574219 176.023438 L 522.992188 174.78125 L 506.730469 162.058594 L 503.003906 176.023438 L 498.46875 165.511719 L 490.898438 190.261719 L 507.03125 213.503906 L 506.316406 213.003906 L 479.429688 194.113281 L 479.273438 194.28125 L 466.386719 208.371094 L 469.828125 246.886719 L 482.210938 259.265625 L 484.429688 266.386719 L 484.847656 267.738281 L 484.667969 267.566406 L 503.625 323.742188 L 640.898438 405.046875 L 752.921875 405.046875 L 710.921875 350.503906 " fill-opacity="1" fill-rule="nonzero"/></g><g clip-path="url(#0bd33dedac)"><path fill="#9a8abb" d="M 503.625 323.742188 L 484.667969 267.566406 L 482.851562 265.878906 L 463.621094 248 L 463.519531 247.621094 L 455.976562 219.765625 L 423.660156 264.878906 L 414.429688 269.367188 L 416.132812 266.5625 L 359.453125 312.546875 L 289.917969 405.046875 L 640.898438 405.046875 L 503.625 323.742188 " fill-opacity="1" fill-rule="nonzero"/></g></svg>