<svg xmlns="http://www.w3.org/2000/svg" xmlns:xlink="http://www.w3.org/1999/xlink" width="1080" zoomAndPan="magnify" viewBox="0 0 810 809.999993" height="1080" preserveAspectRatio="xMidYMid meet" version="1.0"><defs><clipPath id="dad03b1e1a"><path d="M 283.5 627.507812 L 526.5 627.507812 L 526.5 777.796875 L 283.5 777.796875 Z M 283.5 627.507812 " clip-rule="nonzero"/></clipPath><clipPath id="79b9d3cd4b"><path d="M 109 645 L 237 645 L 237 809.925781 L 109 809.925781 Z M 109 645 " clip-rule="nonzero"/></clipPath><clipPath id="a017390dbd"><path d="M 0 665 L 123 665 L 123 809.925781 L 0 809.925781 Z M 0 665 " clip-rule="nonzero"/></clipPath><clipPath id="55f7464124"><path d="M 294 378.675781 L 483 378.675781 L 483 675 L 294 675 Z M 294 378.675781 " clip-rule="nonzero"/></clipPath><clipPath id="07460b169c"><path d="M 208 424 L 518 424 L 518 809.925781 L 208 809.925781 Z M 208 424 " clip-rule="nonzero"/></clipPath><clipPath id="3555e8ef4e"><path d="M 72 584 L 241 584 L 241 809.925781 L 72 809.925781 Z M 72 584 " clip-rule="nonzero"/></clipPath><clipPath id="417ff02199"><path d="M 476 527 L 810 527 L 810 809.925781 L 476 809.925781 Z M 476 527 " clip-rule="nonzero"/></clipPath><clipPath id="fab6a17641"><path d="M 271 594 L 680 594 L 680 809.925781 L 271 809.925781 Z M 271 594 " clip-rule="nonzero"/></clipPath></defs><g clip-path="url(#dad03b1e1a)"><path fill="#433c80" d="M 283.5 627.507812 L 526.546875 627.507812 L 526.546875 777.796875 L 283.5 777.796875 Z M 283.5 627.507812 " fill-opacity="1" fill-rule="nonzero"/></g><path fill="#352e6d" d="M 149.679688 664.433594 C 142.359375 656.132812 135.035156 647.832031 127.707031 639.53125 C 126.851562 638.558594 125.875 637.539062 124.703125 637.070312 C 125.410156 640.007812 126.011719 642.902344 126.484375 645.753906 C 134.472656 652.226562 141.617188 658.652344 149.679688 664.433594 " fill-opacity="1" fill-rule="nonzero"/><path fill="#433c80" d="M 117.109375 707.582031 C 117.125 707.488281 117.148438 707.402344 117.167969 707.308594 C 117.140625 707.265625 117.125 707.222656 117.109375 707.171875 L 117.109375 707.582031 " fill-opacity="1" fill-rule="nonzero"/><path fill="#352e6d" d="M 143.703125 676.773438 L 128.746094 662.601562 C 129.011719 664.722656 129.3125 666.902344 129.628906 669.101562 L 147.085938 690.570312 L 143.703125 676.773438 " fill-opacity="1" fill-rule="nonzero"/><g clip-path="url(#79b9d3cd4b)"><path fill="#584e93" d="M 222.015625 751.304688 C 214.605469 738.050781 204.476562 726.550781 194.429688 715.160156 C 184.078125 703.425781 173.734375 691.699219 163.386719 679.96875 C 158.8125 674.789062 154.246094 669.613281 149.679688 664.433594 C 141.617188 658.652344 134.472656 652.226562 126.484375 645.753906 C 127.234375 650.222656 127.769531 654.675781 128.324219 659.195312 C 128.460938 660.332031 128.597656 661.449219 128.746094 662.601562 L 143.703125 676.773438 L 146.988281 690.144531 L 147.085938 690.570312 L 129.628906 669.101562 C 129.71875 669.734375 129.789062 670.347656 129.886719 671 C 125.03125 683.277344 119.363281 694.433594 117.167969 707.308594 C 119.695312 713.675781 122.640625 719.738281 125.277344 725.710938 C 123.472656 735.890625 121.757812 746.066406 119.980469 756.242188 C 116.851562 774.183594 113.542969 792.117188 109.242188 810.054688 L 217.410156 810.054688 C 223.589844 798.390625 227.039062 784.21875 236.957031 775.480469 C 230.304688 768.683594 226.65625 759.605469 222.015625 751.304688 " fill-opacity="1" fill-rule="nonzero"/></g><g clip-path="url(#a017390dbd)"><path fill="#9a8abb" d="M 114.667969 723.472656 L 108.0625 719.070312 L 81.902344 759.261719 L 83.390625 752.144531 L 86.128906 739.050781 L 104.429688 702.839844 L 115.199219 681.523438 L 114.15625 665.296875 L 108.761719 666.453125 L 100.65625 694.09375 L 89.621094 698.570312 L 89.023438 699.347656 L 71.570312 722.089844 C 60.546875 726.515625 51.011719 731.765625 42.546875 738.214844 C 36.015625 746.027344 29.53125 755.988281 23.449219 766.449219 C 14.675781 781.558594 6.746094 797.722656 0.777344 810.054688 L 109.242188 810.054688 C 113.542969 792.117188 116.851562 774.183594 119.980469 756.242188 C 120.820312 751.417969 121.652344 746.589844 122.488281 741.757812 L 114.667969 723.472656 " fill-opacity="1" fill-rule="nonzero"/></g><path fill="#352e6d" d="M 117.109375 707.582031 L 117.109375 707.171875 C 117.125 707.222656 117.140625 707.265625 117.167969 707.308594 C 119.363281 694.433594 125.03125 683.277344 129.886719 671 C 128.527344 662.15625 127.863281 654.042969 126.484375 645.753906 C 126.011719 642.902344 125.410156 640.007812 124.703125 637.070312 C 124.355469 636.933594 124 636.828125 123.617188 636.804688 C 121.472656 636.664062 119.828125 638.574219 118.554688 640.304688 C 107.136719 655.898438 96.527344 672.085938 86.789062 688.78125 C 82.542969 696.070312 78.421875 703.511719 72.875 709.871094 C 66.1875 717.523438 57.683594 723.316406 50.15625 730.144531 C 47.632812 732.433594 45.082031 735.179688 42.546875 738.214844 C 51.011719 731.765625 60.546875 726.515625 71.570312 722.089844 L 89.023438 699.347656 L 89.621094 698.570312 L 100.65625 694.09375 L 108.761719 666.453125 L 114.15625 665.296875 L 115.199219 681.523438 L 86.128906 739.050781 L 81.902344 759.261719 L 108.0625 719.070312 L 114.667969 723.472656 L 122.488281 741.757812 C 123.40625 736.414062 124.332031 731.0625 125.277344 725.710938 C 122.640625 719.738281 119.695312 713.675781 117.167969 707.308594 C 117.148438 707.402344 117.125 707.488281 117.109375 707.582031 " fill-opacity="1" fill-rule="nonzero"/><path fill="#433c80" d="M 193.898438 649.578125 L 193.417969 650.109375 L 193.898438 649.574219 Z M 193.898438 649.578125 " fill-opacity="1" fill-rule="nonzero"/><g clip-path="url(#55f7464124)"><path fill="#352e6d" d="M 409.398438 424.230469 L 439.917969 478.484375 L 476.941406 514.664062 L 451.539062 471.238281 L 482.128906 489.925781 C 447.984375 458.289062 419.582031 420.453125 398.90625 378.746094 C 397.707031 380.023438 396.519531 381.304688 395.320312 382.585938 L 384.941406 423.074219 L 354.550781 460.433594 L 377.21875 517.464844 L 346.949219 607.570312 L 305.777344 633.914062 L 294.378906 674.964844 L 348.929688 621.84375 L 364.578125 650.269531 L 358.871094 611.636719 L 391.140625 520.96875 L 386.804688 533.164062 L 396.683594 603.886719 L 414.71875 631.707031 L 402.726562 534.027344 L 418.59375 533.144531 L 448.019531 559.457031 L 429.621094 520.574219 L 385.175781 494.234375 L 378.28125 463.34375 L 401.960938 457.914062 L 409.398438 424.230469 " fill-opacity="1" fill-rule="nonzero"/></g><path fill="#352e6d" d="M 301.257812 513.273438 C 300.414062 515.398438 299.59375 517.53125 298.765625 519.667969 L 314.171875 499.132812 L 341.3125 453.199219 L 391.679688 396.808594 L 395.320312 382.585938 C 358.425781 422.136719 321.3125 463.136719 301.257812 513.273438 " fill-opacity="1" fill-rule="nonzero"/><path fill="#352e6d" d="M 224.496094 576.117188 L 226.867188 548.910156 C 210.433594 580.382812 194.335938 625.257812 183.023438 661.523438 L 191.917969 651.75 L 219.972656 584.839844 L 228.050781 614.882812 L 244.214844 647.925781 L 224.496094 576.117188 " fill-opacity="1" fill-rule="nonzero"/><path fill="#352e6d" d="M 237.042969 597.289062 L 236.882812 596.277344 L 237.019531 596.113281 L 236.253906 560.164062 L 254.070312 559.78125 C 239.832031 553.628906 227.460938 547.742188 227.460938 547.742188 C 227.261719 548.125 227.0625 548.527344 226.867188 548.910156 L 224.496094 576.117188 L 244.214844 647.925781 L 245.363281 650.277344 L 237.042969 597.289062 " fill-opacity="1" fill-rule="nonzero"/><path fill="#352e6d" d="M 354.761719 460.976562 L 314.984375 517.804688 L 304.949219 546.367188 L 347.070312 496.222656 L 377.082031 517.871094 L 377.21875 517.464844 L 354.761719 460.976562 " fill-opacity="1" fill-rule="nonzero"/><path fill="#9a8abb" d="M 391.679688 396.808594 L 341.3125 453.199219 L 314.171875 499.132812 L 298.765625 519.667969 C 295.863281 527.183594 292.882812 534.683594 288.28125 541.261719 C 282.207031 549.933594 273.839844 556.3125 264.96875 562.234375 L 263.773438 563.394531 L 304.210938 579.519531 L 280.683594 588.003906 L 305.96875 633.792969 L 344.640625 609.042969 L 346.949219 607.570312 L 377.082031 517.871094 L 347.070312 496.222656 L 304.949219 546.367188 L 314.984375 517.804688 L 354.761719 460.976562 L 354.550781 460.433594 L 384.941406 423.074219 L 391.679688 396.808594 " fill-opacity="1" fill-rule="nonzero"/><g clip-path="url(#07460b169c)"><path fill="#584e93" d="M 291.253906 686.203125 L 291.691406 684.628906 L 292.730469 680.886719 Z M 482.128906 489.925781 L 451.539062 471.238281 L 476.941406 514.664062 L 439.917969 478.484375 L 409.398438 424.230469 L 401.960938 457.914062 L 378.28125 463.34375 L 385.175781 494.234375 L 429.621094 520.574219 L 432.460938 526.566406 L 447 557.308594 L 448.019531 559.457031 L 418.59375 533.144531 L 402.726562 534.027344 L 413.953125 625.4375 L 414.71875 631.707031 L 412.027344 627.554688 L 396.683594 603.886719 L 392.382812 573.082031 L 386.804688 533.164062 L 358.871094 611.636719 L 364.578125 650.269531 L 348.929688 621.84375 L 294.378906 674.964844 L 305.777344 633.914062 L 305.96875 633.792969 L 280.683594 588.003906 L 304.210938 579.519531 L 263.773438 563.394531 L 264.96875 562.234375 C 264.304688 562.675781 263.644531 563.121094 262.976562 563.558594 C 259.988281 562.320312 256.996094 561.046875 254.070312 559.78125 L 236.253906 560.164062 L 237.019531 596.113281 L 236.882812 596.277344 L 244.886719 647.242188 L 245.363281 650.277344 L 240.582031 640.496094 L 239.457031 724.730469 L 239.59375 724.367188 L 221.589844 773.863281 L 208.488281 809.910156 L 208.433594 810.054688 L 331.90625 810.054688 L 346.992188 729.734375 L 347.132812 729 L 352.089844 702.59375 L 387.273438 674.054688 L 403.40625 660.960938 L 417.933594 649.171875 L 444.207031 605.957031 L 455.679688 587.085938 L 462.984375 575.0625 L 463.660156 573.960938 L 470.84375 562.140625 L 486.820312 559.523438 L 508.25 530.609375 L 517.09375 518.675781 C 504.878906 509.800781 493.203125 500.191406 482.128906 489.925781 " fill-opacity="1" fill-rule="nonzero"/></g><g clip-path="url(#3555e8ef4e)"><path fill="#9a8abb" d="M 227.15625 613.054688 L 228.050781 614.882812 L 219.972656 584.839844 L 191.917969 651.75 L 193.417969 650.109375 L 193.898438 649.578125 L 193.898438 649.574219 L 193.417969 650.109375 L 183.023438 661.523438 C 178.316406 670.660156 173.5625 679.765625 168.453125 688.535156 C 153.269531 714.578125 134.316406 738.414062 112.371094 759.074219 L 91.503906 786.347656 L 72.429688 810.054688 L 208.433594 810.054688 L 239.457031 724.730469 L 240.582031 640.496094 L 227.15625 613.054688 " fill-opacity="1" fill-rule="nonzero"/></g><path fill="#352e6d" d="M 477.019531 625.917969 L 496.773438 647.363281 L 494.703125 640.691406 L 480.316406 626.3125 L 476.316406 581.570312 L 491.246094 565.246094 L 493.484375 550.527344 L 486.820312 559.523438 L 471.035156 562.109375 L 469.933594 597.335938 L 477.019531 625.917969 " fill-opacity="1" fill-rule="nonzero"/><path fill="#352e6d" d="M 477.019531 625.917969 L 469.933594 597.335938 L 471.035156 562.109375 L 470.84375 562.140625 L 415.957031 652.429688 L 426.679688 647.214844 L 464.21875 594.804688 L 473.101562 627.609375 L 497.761719 650.535156 L 496.773438 647.363281 L 477.019531 625.917969 " fill-opacity="1" fill-rule="nonzero"/><path fill="#352e6d" d="M 513.585938 531.777344 L 518.351562 542.816406 L 518.179688 528.800781 L 525.351562 511.007812 C 521.941406 515.132812 517.445312 518.9375 517.445312 518.9375 C 517.328125 518.851562 517.210938 518.761719 517.09375 518.675781 L 493.484375 550.527344 L 491.246094 565.246094 L 491.46875 565.003906 L 523.535156 587.53125 L 504.792969 560.53125 L 513.585938 531.777344 " fill-opacity="1" fill-rule="nonzero"/><path fill="#352e6d" d="M 617.109375 606.433594 C 615.191406 602.21875 613.546875 597.714844 610.265625 594.441406 C 606.0625 590.257812 599.945312 588.839844 594.496094 586.488281 C 562.738281 572.769531 555.304688 528.320312 525.367188 510.984375 C 525.363281 510.992188 525.355469 510.996094 525.351562 511.007812 L 518.179688 528.800781 L 518.351562 542.816406 L 518.855469 543.988281 L 523.183594 527.765625 L 543.914062 543.988281 L 565.167969 584.753906 L 548.882812 659.464844 L 563.515625 638.753906 L 578.554688 597.324219 L 597.507812 597.566406 L 619.398438 611.011719 C 618.601562 609.507812 617.820312 607.988281 617.109375 606.433594 " fill-opacity="1" fill-rule="nonzero"/><g clip-path="url(#417ff02199)"><path fill="#584e93" d="M 760.402344 746.691406 C 752.941406 740.9375 745.472656 735.191406 738.011719 729.441406 C 733.988281 726.339844 729.914062 723.210938 725.246094 721.21875 C 721.167969 719.480469 716.738281 718.644531 712.742188 716.726562 C 711.554688 716.152344 710.4375 715.480469 709.347656 714.757812 C 704.992188 711.84375 701.355469 707.84375 697.832031 703.90625 C 684.453125 688.949219 671.078125 673.988281 657.707031 659.035156 C 653.558594 654.394531 649.410156 649.765625 645.269531 645.125 C 635.734375 634.464844 626.09375 623.597656 619.398438 611.011719 L 597.507812 597.566406 L 578.554688 597.324219 L 563.515625 638.753906 L 550.078125 657.777344 L 548.882812 659.464844 L 559.492188 610.820312 L 560.726562 605.164062 L 565.167969 584.753906 L 556.226562 567.597656 L 543.914062 543.988281 L 542.074219 542.546875 L 523.183594 527.765625 L 518.855469 543.988281 L 513.585938 531.777344 L 504.792969 560.53125 L 523.535156 587.53125 L 522.703125 586.949219 L 491.46875 565.003906 L 491.289062 565.203125 L 476.316406 581.570312 L 480.316406 626.3125 L 494.703125 640.691406 L 497.273438 648.96875 L 497.761719 650.535156 L 497.554688 650.339844 L 519.578125 715.597656 L 679.054688 810.054688 L 809.195312 810.054688 L 760.402344 746.691406 " fill-opacity="1" fill-rule="nonzero"/></g><g clip-path="url(#fab6a17641)"><path fill="#9a8abb" d="M 519.578125 715.597656 L 497.554688 650.339844 L 495.441406 648.375 L 473.101562 627.609375 L 472.984375 627.164062 L 464.21875 594.804688 L 426.679688 647.214844 L 415.957031 652.429688 L 417.933594 649.171875 L 352.089844 702.59375 L 271.308594 810.054688 L 679.054688 810.054688 L 519.578125 715.597656 " fill-opacity="1" fill-rule="nonzero"/></g></svg>