<svg xmlns="http://www.w3.org/2000/svg" xmlns:xlink="http://www.w3.org/1999/xlink" width="1080" zoomAndPan="magnify" viewBox="0 0 810 404.99999" height="540" preserveAspectRatio="xMidYMid meet" version="1.0"><defs><clipPath id="58b7e4d861"><path d="M 304 31.214844 L 474 31.214844 L 474 299 L 304 299 Z M 304 31.214844 " clip-rule="nonzero"/></clipPath></defs><path fill="#352e6d" d="M 174.300781 288.792969 C 167.703125 281.3125 161.101562 273.828125 154.496094 266.347656 C 153.722656 265.46875 152.84375 264.550781 151.789062 264.125 C 152.425781 266.773438 152.964844 269.382812 153.394531 271.953125 C 160.59375 277.789062 167.035156 283.582031 174.300781 288.792969 " fill-opacity="1" fill-rule="nonzero"/><path fill="#433c80" d="M 144.945312 327.683594 C 144.957031 327.601562 144.976562 327.523438 144.996094 327.4375 C 144.972656 327.398438 144.957031 327.359375 144.945312 327.316406 L 144.945312 327.683594 " fill-opacity="1" fill-rule="nonzero"/><path fill="#352e6d" d="M 168.914062 299.914062 L 155.429688 287.140625 C 155.671875 289.054688 155.941406 291.019531 156.226562 293 L 171.964844 312.351562 L 168.914062 299.914062 " fill-opacity="1" fill-rule="nonzero"/><path fill="#584e93" d="M 239.503906 367.097656 C 232.824219 355.148438 223.695312 344.785156 214.636719 334.515625 C 205.308594 323.9375 195.984375 313.371094 186.65625 302.792969 C 182.535156 298.128906 178.417969 293.460938 174.300781 288.792969 C 167.035156 283.582031 160.59375 277.789062 153.394531 271.953125 C 154.066406 275.980469 154.550781 279.996094 155.054688 284.070312 C 155.175781 285.09375 155.296875 286.101562 155.429688 287.140625 L 168.914062 299.914062 L 171.875 311.96875 L 171.964844 312.351562 L 156.226562 293 C 156.308594 293.570312 156.371094 294.121094 156.460938 294.710938 C 152.082031 305.777344 146.976562 315.835938 144.996094 327.4375 C 147.277344 333.179688 149.929688 338.640625 152.304688 344.027344 C 150.679688 353.199219 149.132812 362.375 147.53125 371.546875 C 144.710938 387.71875 141.730469 403.882812 137.851562 420.050781 L 235.351562 420.050781 C 240.921875 409.535156 244.03125 396.761719 252.972656 388.886719 C 246.972656 382.761719 243.6875 374.578125 239.503906 367.097656 " fill-opacity="1" fill-rule="nonzero"/><path fill="#9a8abb" d="M 142.742188 342.007812 L 136.789062 338.042969 L 113.207031 374.265625 L 114.550781 367.851562 L 117.019531 356.046875 L 133.511719 323.410156 L 143.21875 304.195312 L 142.28125 289.570312 L 137.417969 290.613281 L 130.113281 315.527344 L 120.167969 319.5625 L 119.628906 320.261719 L 103.894531 340.761719 C 93.960938 344.75 85.367188 349.484375 77.734375 355.296875 C 71.847656 362.339844 66 371.320312 60.523438 380.746094 C 52.613281 394.367188 45.464844 408.933594 40.082031 420.050781 L 137.851562 420.050781 C 141.730469 403.882812 144.710938 387.71875 147.53125 371.546875 C 148.289062 367.195312 149.039062 362.847656 149.789062 358.492188 L 142.742188 342.007812 " fill-opacity="1" fill-rule="nonzero"/><path fill="#352e6d" d="M 144.945312 327.683594 L 144.945312 327.316406 C 144.957031 327.359375 144.972656 327.398438 144.996094 327.4375 C 146.976562 315.835938 152.082031 305.777344 156.460938 294.710938 C 155.234375 286.738281 154.636719 279.425781 153.394531 271.953125 C 152.964844 269.382812 152.425781 266.773438 151.789062 264.125 C 151.476562 264.003906 151.152344 263.910156 150.808594 263.886719 C 148.878906 263.757812 147.394531 265.484375 146.246094 267.042969 C 135.957031 281.097656 126.394531 295.691406 117.613281 310.738281 C 113.785156 317.308594 110.070312 324.015625 105.070312 329.746094 C 99.046875 336.644531 91.378906 341.867188 84.59375 348.019531 C 82.316406 350.085938 80.019531 352.558594 77.734375 355.296875 C 85.367188 349.484375 93.960938 344.75 103.894531 340.761719 L 119.628906 320.261719 L 120.167969 319.5625 L 130.113281 315.527344 L 137.417969 290.613281 L 142.28125 289.570312 L 143.21875 304.195312 L 117.019531 356.046875 L 113.207031 374.265625 L 136.789062 338.042969 L 142.742188 342.007812 L 149.789062 358.492188 C 150.617188 353.671875 151.453125 348.851562 152.304688 344.027344 C 149.929688 338.640625 147.277344 333.179688 144.996094 327.4375 C 144.976562 327.523438 144.957031 327.601562 144.945312 327.683594 " fill-opacity="1" fill-rule="nonzero"/><path fill="#433c80" d="M 214.160156 275.402344 L 213.726562 275.882812 L 214.160156 275.398438 Z M 214.160156 275.402344 " fill-opacity="1" fill-rule="nonzero"/><g clip-path="url(#58b7e4d861)"><path fill="#352e6d" d="M 408.40625 72.277344 L 435.914062 121.183594 L 469.285156 153.792969 L 446.386719 114.652344 L 473.964844 131.496094 C 443.183594 102.980469 417.582031 68.875 398.949219 31.28125 C 397.867188 32.429688 396.792969 33.589844 395.714844 34.738281 L 386.359375 71.238281 L 358.96875 104.910156 L 379.398438 156.316406 L 352.113281 237.535156 L 315.003906 261.285156 L 304.730469 298.28125 L 353.898438 250.402344 L 368.007812 276.027344 L 362.859375 241.203125 L 391.949219 159.476562 L 388.039062 170.46875 L 396.945312 234.214844 L 413.199219 259.292969 L 402.390625 171.25 L 416.695312 170.453125 L 443.21875 194.167969 L 426.632812 159.121094 L 386.570312 135.378906 L 380.355469 107.535156 L 401.703125 102.640625 L 408.40625 72.277344 " fill-opacity="1" fill-rule="nonzero"/></g><path fill="#352e6d" d="M 310.929688 152.539062 C 310.167969 154.453125 309.429688 156.378906 308.683594 158.304688 L 322.570312 139.796875 L 347.035156 98.390625 L 392.433594 47.5625 L 395.714844 34.738281 C 362.460938 70.394531 329.003906 107.347656 310.929688 152.539062 " fill-opacity="1" fill-rule="nonzero"/><path fill="#352e6d" d="M 241.738281 209.1875 L 243.875 184.660156 C 229.0625 213.03125 214.554688 253.480469 204.355469 286.167969 L 212.375 277.359375 L 237.660156 217.046875 L 244.945312 244.128906 L 259.511719 273.910156 L 241.738281 209.1875 " fill-opacity="1" fill-rule="nonzero"/><path fill="#352e6d" d="M 253.050781 228.269531 L 252.90625 227.355469 L 253.027344 227.210938 L 252.335938 194.808594 L 268.398438 194.460938 C 255.5625 188.917969 244.410156 183.609375 244.410156 183.609375 C 244.230469 183.953125 244.054688 184.316406 243.875 184.660156 L 241.738281 209.1875 L 259.511719 273.910156 L 260.546875 276.03125 L 253.050781 228.269531 " fill-opacity="1" fill-rule="nonzero"/><path fill="#352e6d" d="M 359.15625 105.398438 L 323.304688 156.625 L 314.257812 182.367188 L 352.226562 137.167969 L 379.277344 156.683594 L 379.398438 156.316406 L 359.15625 105.398438 " fill-opacity="1" fill-rule="nonzero"/><path fill="#9a8abb" d="M 392.433594 47.5625 L 347.035156 98.390625 L 322.570312 139.796875 L 308.683594 158.304688 C 306.070312 165.078125 303.382812 171.839844 299.234375 177.769531 C 293.757812 185.582031 286.214844 191.335938 278.222656 196.671875 L 277.140625 197.714844 L 313.589844 212.253906 L 292.382812 219.902344 L 315.175781 261.171875 L 350.03125 238.867188 L 352.113281 237.535156 L 379.277344 156.683594 L 352.226562 137.167969 L 314.257812 182.367188 L 323.304688 156.625 L 359.15625 105.398438 L 358.96875 104.910156 L 386.359375 71.238281 L 392.433594 47.5625 " fill-opacity="1" fill-rule="nonzero"/><path fill="#584e93" d="M 301.914062 308.414062 L 302.308594 306.996094 L 303.242188 303.625 Z M 473.964844 131.496094 L 446.386719 114.652344 L 469.285156 153.792969 L 435.914062 121.183594 L 408.40625 72.277344 L 401.703125 102.640625 L 380.355469 107.535156 L 386.570312 135.378906 L 426.632812 159.121094 L 429.191406 164.523438 L 442.300781 192.230469 L 443.21875 194.167969 L 416.695312 170.453125 L 402.390625 171.25 L 412.511719 253.640625 L 413.199219 259.292969 L 410.773438 255.546875 L 396.945312 234.214844 L 393.066406 206.449219 L 388.039062 170.46875 L 362.859375 241.203125 L 368.007812 276.027344 L 353.898438 250.402344 L 304.730469 298.28125 L 315.003906 261.285156 L 315.175781 261.171875 L 292.382812 219.902344 L 313.589844 212.253906 L 277.140625 197.714844 L 278.222656 196.671875 C 277.621094 197.070312 277.023438 197.472656 276.425781 197.867188 C 273.730469 196.75 271.035156 195.601562 268.398438 194.460938 L 252.335938 194.808594 L 253.027344 227.210938 L 252.90625 227.355469 L 260.121094 273.292969 L 260.546875 276.03125 L 256.238281 267.214844 L 255.222656 343.140625 L 255.347656 342.8125 L 239.121094 387.429688 L 227.308594 419.921875 L 227.257812 420.050781 L 338.558594 420.050781 L 352.152344 347.652344 L 352.28125 346.992188 L 356.746094 323.1875 L 388.460938 297.464844 L 403.003906 285.660156 L 416.097656 275.035156 L 439.78125 236.085938 L 450.121094 219.074219 L 456.707031 208.234375 L 457.3125 207.242188 L 463.789062 196.585938 L 478.191406 194.230469 L 497.507812 168.167969 L 505.476562 157.40625 C 494.46875 149.410156 483.945312 140.746094 473.964844 131.496094 " fill-opacity="1" fill-rule="nonzero"/><path fill="#9a8abb" d="M 244.136719 242.480469 L 244.945312 244.128906 L 237.660156 217.046875 L 212.375 277.359375 L 213.726562 275.882812 L 214.160156 275.402344 L 214.160156 275.398438 L 213.726562 275.882812 L 204.355469 286.167969 C 200.113281 294.40625 195.828125 302.609375 191.222656 310.515625 C 177.539062 333.992188 160.453125 355.476562 140.671875 374.101562 L 121.863281 398.683594 L 104.667969 420.050781 L 227.257812 420.050781 L 255.222656 343.140625 L 256.238281 267.214844 L 244.136719 242.480469 " fill-opacity="1" fill-rule="nonzero"/><path fill="#352e6d" d="M 469.359375 254.074219 L 487.164062 273.40625 L 485.296875 267.390625 L 472.328125 254.429688 L 468.722656 214.097656 L 482.179688 199.386719 L 484.199219 186.117188 L 478.191406 194.230469 L 463.960938 196.558594 L 462.972656 228.3125 L 469.359375 254.074219 " fill-opacity="1" fill-rule="nonzero"/><path fill="#352e6d" d="M 469.359375 254.074219 L 462.972656 228.3125 L 463.960938 196.558594 L 463.789062 196.585938 L 414.316406 277.972656 L 423.980469 273.273438 L 457.820312 226.03125 L 465.824219 255.597656 L 488.054688 276.265625 L 487.164062 273.40625 L 469.359375 254.074219 " fill-opacity="1" fill-rule="nonzero"/><path fill="#352e6d" d="M 502.316406 169.21875 L 506.613281 179.167969 L 506.457031 166.535156 L 512.921875 150.5 C 509.851562 154.214844 505.792969 157.648438 505.792969 157.648438 C 505.6875 157.570312 505.582031 157.484375 505.476562 157.40625 L 484.199219 186.117188 L 482.179688 199.386719 L 482.378906 199.167969 L 511.285156 219.472656 L 494.390625 195.136719 L 502.316406 169.21875 " fill-opacity="1" fill-rule="nonzero"/><path fill="#352e6d" d="M 595.628906 236.511719 C 593.898438 232.714844 592.421875 228.652344 589.460938 225.703125 C 585.671875 221.933594 580.160156 220.652344 575.246094 218.53125 C 546.621094 206.167969 539.921875 166.101562 512.9375 150.476562 C 512.933594 150.480469 512.925781 150.488281 512.921875 150.5 L 506.457031 166.535156 L 506.613281 179.167969 L 507.070312 180.226562 L 510.96875 165.601562 L 529.652344 180.226562 L 548.8125 216.96875 L 534.132812 284.316406 L 547.320312 265.644531 L 560.878906 228.300781 L 577.960938 228.519531 L 597.695312 240.640625 C 596.976562 239.28125 596.269531 237.914062 595.628906 236.511719 " fill-opacity="1" fill-rule="nonzero"/><path fill="#584e93" d="M 724.789062 362.933594 C 718.066406 357.75 711.332031 352.570312 704.609375 347.386719 C 700.980469 344.59375 697.308594 341.773438 693.105469 339.976562 C 689.425781 338.410156 685.433594 337.65625 681.832031 335.925781 C 680.757812 335.410156 679.753906 334.804688 678.773438 334.152344 C 674.847656 331.527344 671.570312 327.921875 668.394531 324.375 C 656.332031 310.890625 644.277344 297.402344 632.222656 283.925781 C 628.484375 279.742188 624.746094 275.570312 621.015625 271.386719 C 612.417969 261.777344 603.730469 251.984375 597.695312 240.640625 L 577.960938 228.519531 L 560.878906 228.300781 L 547.320312 265.644531 L 535.210938 282.789062 L 534.132812 284.316406 L 543.695312 240.46875 L 544.808594 235.367188 L 548.8125 216.96875 L 540.753906 201.503906 L 529.652344 180.226562 L 527.996094 178.925781 L 510.96875 165.601562 L 507.070312 180.226562 L 502.316406 169.21875 L 494.390625 195.136719 L 511.285156 219.472656 L 510.535156 218.949219 L 482.378906 199.167969 L 482.21875 199.347656 L 468.722656 214.097656 L 472.328125 254.429688 L 485.296875 267.390625 L 487.613281 274.851562 L 488.054688 276.265625 L 487.867188 276.085938 L 507.71875 334.910156 L 651.464844 420.050781 L 768.769531 420.050781 L 724.789062 362.933594 " fill-opacity="1" fill-rule="nonzero"/><path fill="#9a8abb" d="M 507.71875 334.910156 L 487.867188 276.085938 L 485.964844 274.316406 L 465.824219 255.597656 L 465.71875 255.199219 L 457.820312 226.03125 L 423.980469 273.273438 L 414.316406 277.972656 L 416.097656 275.035156 L 356.746094 323.1875 L 283.933594 420.050781 L 651.464844 420.050781 L 507.71875 334.910156 " fill-opacity="1" fill-rule="nonzero"/></svg>